<?xml version="1.0" encoding="utf-8"?>
<!-- Generator: Adobe Illustrator 24.0.0, SVG Export Plug-In . SVG Version: 6.00 Build 0)  -->
<svg version="1.1" id="Layer_1" xmlns="http://www.w3.org/2000/svg" xmlns:xlink="http://www.w3.org/1999/xlink" x="0px" y="0px"
	 viewBox="0 0 88 29.1" style="enable-background:new 0 0 88 29.1;" xml:space="preserve">
<style type="text/css">
	.st0{fill:#6AB9FF;}
</style>
<path class="st0" d="M86,24.9c0.2-2.2-4.9-4.3-7.3-4.3c-8.5-0.2-16.9-0.4-25.4-0.6L30.8,0L27,2l13,17.2c-8.1-0.1-29.7,0.1-32.4,0
	c-2.3-0.1,12.4,7.7,16.1,8.4c0,0,30.5,0.9,43.9,1.2c3.5,0.1,6.9,0.2,10.4,0.3C80.4,29.1,85.8,27.3,86,24.9z"/>
<polygon class="st0" points="6.7,8 3.9,9.2 7.2,17.7 16.3,17.8 "/>
<path d="M48.8,29.7"/>
</svg>
