<svg xmlns="http://www.w3.org/2000/svg" xmlns:xlink="http://www.w3.org/1999/xlink" viewBox="0 0 100.06 100.36"><defs><style>.cls-1,.cls-10,.cls-8{fill:none;}.cls-2{clip-path:url(#clip-path);}.cls-3{fill:#29abe2;stroke:#29abe2;}.cls-10,.cls-3,.cls-8,.cls-9{stroke-miterlimit:10;}.cls-4{clip-path:url(#clip-path-2);}.cls-5{fill:#22b573;}.cls-6{fill:#fff;}.cls-7{clip-path:url(#clip-path-3);}.cls-8{stroke:#fff;}.cls-10,.cls-8{stroke-width:0.25px;}.cls-9{fill:#0071bc;stroke:#0071bc;}.cls-10{stroke:#000;}.cls-11{fill:#666;}</style><clipPath id="clip-path" transform="translate(-25.3 -25.01)"><ellipse class="cls-1" cx="74.72" cy="74.3" rx="49.19" ry="49.43"/></clipPath><clipPath id="clip-path-2" transform="translate(-25.3 -25.01)"><ellipse class="cls-1" cx="74.64" cy="75.05" rx="49.11" ry="48.94"/></clipPath><clipPath id="clip-path-3" transform="translate(-25.3 -25.01)"><ellipse class="cls-1" cx="75.05" cy="75" rx="50" ry="49.87"/></clipPath></defs><title>Planet-Plane-Planner</title><g id="Layer_3" data-name="Layer 3"><g class="cls-2"><ellipse class="cls-3" cx="49.92" cy="50.42" rx="49.19" ry="49.43"/></g></g><g id="Layer_2" data-name="Layer 2"><g class="cls-4"><path class="cls-5" d="M91,73.89c-.06,1.25-1.13,2.15-2,3a12.38,12.38,0,0,0-2.77,3.39,8.1,8.1,0,0,0-.43,5.21,17.48,17.48,0,0,0,.85,2.72c.16.41.33.82.5,1.22l.33.8c.12.41.15.42.1,0l.89-.69c.35-.11,0-.13-.15-.52a2,2,0,0,1-.09-1l-2.79.76L87.14,91A11.11,11.11,0,0,1,89,93.67c.24.77.2,1.4.78,2a3.7,3.7,0,0,0,1.9,1.1c1.71.41,3.33-.48,5-.36a6.43,6.43,0,0,1,4,1.85,5.09,5.09,0,0,1,.67.79,2.11,2.11,0,0,1,.28.45c.06.17.22-.52,0,0-.09.28-.49.6-.65.87a5.26,5.26,0,0,0-.5,1.14,13,13,0,0,0-.09,4.77c.2,2.93-1.11,5.11-2.86,7.35-2,2.54-4.21,5-4.91,8.29a1.52,1.52,0,0,0,2.51,1.46,45.74,45.74,0,0,0,7.7-8.09c1.16-1.54-1.45-3-2.59-1.51a43,43,0,0,1-7.23,7.47l2.51,1.46c1.23-5.77,7.71-8.88,7.91-15.12,0-1.59-.44-3.23-.17-4.8.14-.83.65-1.2,1-1.87a2.75,2.75,0,0,0,.05-2.6c-1.31-2.93-4.65-4.76-7.76-4.94a11.42,11.42,0,0,0-2.85.31c-.44.09-1.13.34-1.56.12s-.3-.37-.39-.83a7.58,7.58,0,0,0-1.59-2.76l-2.2-3a1.52,1.52,0,0,0-2.8.76c-.18,2,1.71,5.54,4.22,4.33a2.27,2.27,0,0,0,.93-2.95C90,88,89.27,86.72,88.89,85.29A5.33,5.33,0,0,1,89,81.44a9.09,9.09,0,0,1,1.91-2.24c1.55-1.51,3-3,3.07-5.31.09-1.93-2.91-1.92-3,0Z" transform="translate(-25.3 -25.01)"/><path class="cls-5" d="M93.53,75.42h3.55l1.66,0a6.33,6.33,0,0,0,1.89,0l.19,0c.1-1.26,0-1.57-.42-.91a2,2,0,0,0-.41,1.26,2.64,2.64,0,0,0,1.27,2.06,15.6,15.6,0,0,0,2.81,1.22c1,.41,2,.91,3.06,1.23a3.54,3.54,0,0,0,2.38,0,2.36,2.36,0,0,0,1.13-.89c.17-.25.26-.89.46-1.06,1-.8,2,2.45,2.28,3.08a6.48,6.48,0,0,1,.73,2.85c-.06,1.06-.19,2.13-.29,3.19-.17,1.94-.71,4.19.06,6a3.37,3.37,0,0,0,4.22,2l-1.7-2.21c-1.31,2.43-2.62,4.87-4.16,7.16a76.62,76.62,0,0,1-5,6,28.56,28.56,0,0,0-3.71,6.4c-1,2.14-2.26,4.46-4.74,5.06l1.46,2.5a25,25,0,0,0,5.43-12.13,6.43,6.43,0,0,1,.91-3.31,24,24,0,0,1,2.59-2.45l5.91-5.39-2.36-1.81c-1.41,2.27-2.81,4.56-4.24,6.82-1.08,1.71-2.34,3.63-4.3,4.41l1.69,2.21a13.24,13.24,0,0,0,.38-13.67,1.51,1.51,0,0,0-2.59,0c-1.36,2.16-4.42,9.67.36,10a1.46,1.46,0,0,0,1.3-.75c.83-1.95,1.8-4.7,1.21-6.84-.3-1.1-1.16-1.48-2.09-1.9a5,5,0,0,1-2.22-2.1c-1.38-2.06-3.67-2-5.9-2.45-2-.39-4.79-1.32-4.6-3.84l-2.94.4c.58,1.88.11,3.93,1.45,5.56a3.45,3.45,0,0,0,4.46,1,1.54,1.54,0,0,0,.54-2c-1.67-3.11-3.85-6.23-2.66-9.91a7.43,7.43,0,0,1,7.78-5l-.4-2.95A9.07,9.07,0,0,1,97,75c-1,0-2-.33-3-.41-2-.17-2.89,1.7-3.75,3.22-1.71,3-3.64,7-1.64,10.37a4.93,4.93,0,0,0,4,2.43c1,.07,2-.2,3-.19a5.06,5.06,0,0,1,2.6.83,37.6,37.6,0,0,1,8.67,8.08,1.45,1.45,0,0,0,1.46.38,24.53,24.53,0,0,0,5.41-2.79c1.49-1,2.74-2.17,2.27-4.18-.21-.91-.65-1.75-.88-2.66a11.39,11.39,0,0,1-.29-3,11.27,11.27,0,0,1,.52-2.94,12.06,12.06,0,0,0,.89-2.66c.23-3-5.58-6.63-6.72-2.68a3.08,3.08,0,0,0,.29,2.26,4.39,4.39,0,0,0,.61.87c.18.21.83.67.86,1,.07.5-1,1-1.34,1.29a28.63,28.63,0,0,1-2.78,1.61,29,29,0,0,1-12.88,3.12,1.51,1.51,0,0,0-1.06,2.56,3.43,3.43,0,0,0,4.37.36c1.54-1.13,0-3.74-1.51-2.59-.25.18-.47.35-.74.1l-1.06,2.57a32.49,32.49,0,0,0,12.45-2.62c2.6-1.11,9.09-3.76,7.28-7.63a4.48,4.48,0,0,0-1.44-1.81c-.15-.46-.32-.36-.51.31a3.27,3.27,0,0,1,.58.39c.38.3.57.45.56.89a6.81,6.81,0,0,1-.6,1.5,10.68,10.68,0,0,0-.37,1.22,14.08,14.08,0,0,0-.09,6.27,11.75,11.75,0,0,0,.46,1.64c.12.33.65,1.19.51,1.54-.28.65-1.81,1.31-2.38,1.64a20.93,20.93,0,0,1-3.2,1.54l1.46.39a49.9,49.9,0,0,0-7.37-7.16,12.59,12.59,0,0,0-4-2.36c-1.63-.48-3.12,0-4.74-.07s-2.15-1.69-2-3.08a12.48,12.48,0,0,1,1.75-4.64,11.16,11.16,0,0,1,1.23-2.08c.35-.41.14-.29.68-.09a5.82,5.82,0,0,0,1.25.2,11.63,11.63,0,0,0,5.1-.6,1.51,1.51,0,0,0-.4-3A10.31,10.31,0,0,0,89.56,87.14c.59,2.39,2,4.49,3.13,6.64l.53-2.06c-1,.6-1.34-4.26-1.5-4.79a1.51,1.51,0,0,0-3,.4,5.83,5.83,0,0,0,2.48,5c1.89,1.45,4.24,1.73,6.52,2.12a4.83,4.83,0,0,1,1.46.32,2.43,2.43,0,0,1,.83,1,7.24,7.24,0,0,0,2,2.08,8,8,0,0,0,1.3.67c.57.24.34.12.29.82a11.16,11.16,0,0,1-.88,3.64l1.29-.74.5.27,0-.16a2.33,2.33,0,0,0,0-.45,7.82,7.82,0,0,1,.34-1.86,11.77,11.77,0,0,1,1.45-3.26h-2.59a10.23,10.23,0,0,1-.38,10.64c-.67,1,.47,2.69,1.69,2.21a12,12,0,0,0,5.47-4.82c1.71-2.54,3.26-5.2,4.87-7.8.93-1.49-1.12-2.94-2.35-1.82l-5.73,5.23c-1.76,1.6-3.72,3-4.21,5.51a40.1,40.1,0,0,1-1.47,6.56,21.57,21.57,0,0,1-3.43,6A1.51,1.51,0,0,0,99.63,121c5.71-1.37,6.39-7.91,9.51-11.9,1.66-2.12,3.62-4,5.18-6.18A80.46,80.46,0,0,0,119,95c.56-1-.4-2.74-1.69-2.21s-.57-4.13-.52-4.71c.18-2,.67-4.12,0-6-1-2.78-2.77-8-6.74-6.47A2.91,2.91,0,0,0,108.44,77c-.07.16-.13.32-.19.47q-.27.56.18.12a7.44,7.44,0,0,1-1-.34c-1.08-.42-2.14-.86-3.21-1.3l-.69-.27c-.46-.37-.65-.19-.57.52.23,0,.51-1,.54-1.08.35-1.86-1.57-2.62-3.07-2.68-2.28-.09-4.58-.06-6.86,0a1.5,1.5,0,0,0,0,3Z" transform="translate(-25.3 -25.01)"/><path class="cls-5" d="M95.13,83l-2.2.59,3.39,1.38c.06.08.33,1.11.18,1.22a2,2,0,0,0,.17-.51A6.26,6.26,0,0,0,97,83.93a11.35,11.35,0,0,0-.1-1.16c0-.32.15-.61-.06-.1.14-.36.06-.09-.06.06.21-.26.09-.16-.07,0,.11-.12.24-.22.34-.34-.15.17-.31.23,0,0,.53-.36-.27,0,.12-.08a3.43,3.43,0,0,0,.57-.17c.39-.16-.33,0,.09,0a10.14,10.14,0,0,1,1.35,0c.4,0,.81,0,1.21.06l.61.06c.18,0,.45.06.12,0a22.19,22.19,0,0,1,2.55.53,23.7,23.7,0,0,1,2.47.8c.13,0,.43.16.14,0l.69.31.55.27c1.06.54-.75-.14-.61-1.49l.41-1.52c-.2.46,0,0,.1-.09s.5-.33,0,0c-.27.16-.53.33-.81.47l-.36.18c.48-.23.09,0,0,0-.34.1-.68.22-1,.3l-.52.1c.55-.12.14,0,0,0-.31,0-.62,0-.94,0s-1-.07-.4,0a9.56,9.56,0,0,1-1.18-.26c-1.55-.46-2.85-1.17-4.55-.8a4.33,4.33,0,0,0-3.06,5.29,6.91,6.91,0,0,0,3,4.15,11.46,11.46,0,0,0,1.81.93l1,.42.13.06a10.32,10.32,0,0,1,1.1.56,42,42,0,0,1,4,3c1.54,1.18,3.14,2.55,5.24,2,2.64-.69,3.26-3.4,2.68-5.74a11.7,11.7,0,0,0-2.85-5.09L107,91.4l1,.56a3.09,3.09,0,0,0,4.11-1.07,12.7,12.7,0,0,0,1.7-3.61,3,3,0,0,0-5.79-1.59c-.07.23-.14.46-.23.69-.17.48.32-.56-.1.23a12.25,12.25,0,0,1-.76,1.25l4.1-1.08-1-.56a3,3,0,0,0-3.63,4.71s.61.73.25.25c.14.19.27.38.39.58s.22.41.34.62c.39.71-.1-.47.12.31,0,.18.12.36.17.54s.11,1,.07.17c0,.69.24-.66.27-.71a2.1,2.1,0,0,1,2.49-.94,3.13,3.13,0,0,1-.42-.29c-1.85-1.34-3.55-2.95-5.51-4.12a10.39,10.39,0,0,0-1.38-.68c-.43-.19-.86-.36-1.29-.54.42.18-.18-.09-.28-.13s-.46-.23-.68-.36c0,0-.66-.45-.32-.18s-.26-.27-.25-.27c-.23-.25-.23-.25,0,0-.14-.26-.16-.28-.07-.08l0,.14q-.12-.49,0,.09c-.32.7-.44,1.27-1.32,1.55-.21.07-.58,0-.74,0,.13-.05.55.15.68.2a17.17,17.17,0,0,0,2.7.83,12.38,12.38,0,0,0,6.6-.63,10.07,10.07,0,0,0,3.35-2,3.78,3.78,0,0,0,.68-4.76,6.2,6.2,0,0,0-3-2.14,28.19,28.19,0,0,0-3.6-1.33,25.26,25.26,0,0,0-7-1c-2.8,0-5.8,1-7.15,3.69A7.19,7.19,0,0,0,91,83.93c0,.36.21-.45-.08.13A4.67,4.67,0,0,0,91.14,88a3.14,3.14,0,0,0,3.39,1.38l2.2-.6A3,3,0,1,0,95.13,83Z" transform="translate(-25.3 -25.01)"/><path class="cls-5" d="M115,76.73c-.2.29-.39.17-.42.52a1.4,1.4,0,0,0,.21.73,2.9,2.9,0,0,0,.67.85c.45.42,1,.72,1.22,1.34a6.83,6.83,0,0,1,.17,2l.27,8.63a.75.75,0,0,0,1.13.65A10.82,10.82,0,0,0,123,81.74a.75.75,0,0,0-1.5,0,3.38,3.38,0,0,1-.85,2.14l.73-.19c-.82-.33-.42-2.74-.37-3.37a27.93,27.93,0,0,1,.6-4.07l-1.25.33a6.38,6.38,0,0,1,1.35,2.59c.21.79,1.58.66,1.47-.2-.36-3,.28-6,.18-9a39.53,39.53,0,0,0-1.26-8.65.76.76,0,0,0-1.45,0c.4,0,.48-.18.23-.44l-.85,1.1.89.18a.76.76,0,0,0,1-.72c-.2-2.36-1.71-4-2.88-5.92-1.37-2.26-1.91-4.91-3.21-7.22-2.56-4.52-6.53-8-10.39-11.4-.6-.52-1.69.17-1.18.91a4.5,4.5,0,0,1,.7,1.58l.52-.92c-2.17.6-3.5-1.57-4.44-3.15l-.26,1a1.37,1.37,0,0,1,1.29,0,.75.75,0,0,0,.76-1.3,24.55,24.55,0,0,0-5.3-2.65C96.31,32,94,31,93,32.16c-.9,1-.37,2.4.3,3.34a5.37,5.37,0,0,1,.62.88,9.06,9.06,0,0,1,.26,1.87c.09.37,1.14,2,.67,2.13l.85,1.1a1.22,1.22,0,0,0-.67-1.9.75.75,0,0,0-.85.34,3.79,3.79,0,0,0,2.42,5.54c.66.13,1.36-.75.73-1.26a.77.77,0,0,0,.33.66l.68.87L99.5,47.3c.46.61,1.71.3,1.37-.57a3.54,3.54,0,0,1-.4-1.38,2.79,2.79,0,0,0-.1-1.46,3.17,3.17,0,0,0-.93-1.16c-.11-.09-1.63-1.23-1.06-1.46l-.95-.72a5.12,5.12,0,0,0,.51,2.93l.84-1.1c-.26-.08-.11-1.17-.11-1.39a8.16,8.16,0,0,0-.28-1.7c-.17-.66-.34-2.3.83-1.51.77.52.74,1.68.84,2.51a4.49,4.49,0,0,0,1.22,3c1.13,1,2.6.3,3.88.87a.76.76,0,0,0-1,1c.74,1.27.24,3-.51,4.13a5.06,5.06,0,0,1-1.28,1.37,2.59,2.59,0,0,1-1,.56l-.15-.33a3.26,3.26,0,0,1,1.12.07V49.54a3.08,3.08,0,0,1-4-2L97,48.3c1.26,1.48.19,3.57-.74,5S94,55.41,92.88,56.59a2.91,2.91,0,0,0-.89,3c.39,1.17,1.68,1.82,1.91,3,.19,1,1.63.55,1.45-.4-.25-1.32-1.66-2-2-3.17-.35-1.42,2.47-2.91,3.27-3.82,1.88-2.13,3.57-5.49,1.44-8-.49-.58-1.46,0-1.25.73a4.59,4.59,0,0,0,5.85,3c.63-.22.79-1.31,0-1.45-1.31-.22-3.1-.2-3.42,1.45s1.38,2.09,2.62,1.63c2.95-1.09,5.22-5.26,3.53-8.19l-1,1c1.94.86,2.87-2,.94-2.85a4.16,4.16,0,0,0-1.65-.19c-.64,0-1.22.07-1.65-.52a2.74,2.74,0,0,1-.4-1.06c-.27-1.28-.09-2.71-1-3.78-1.29-1.56-4-1.2-4,1.11,0,1.19.48,2.32.5,3.53,0,1,.22,1.81,1.22,2.13a.76.76,0,0,0,.85-1.1,3.9,3.9,0,0,1-.3-2.18.75.75,0,0,0-1-.72,1.86,1.86,0,0,0-.84,2.78c.4.65,1.24.91,1.62,1.52s0,.95.08,1.48a6.74,6.74,0,0,0,.59,1.52l1.37-.58c-.7-.91-1.34-1.91-2.11-2.75A2.08,2.08,0,0,0,97.15,43a1.34,1.34,0,0,0-.91,2.29L97,44a2.27,2.27,0,0,1-1.52-3.33L94.6,41l-.23-.29c-.43.56.28,1.22.85,1.1a1.76,1.76,0,0,0,1.2-2.22,5.52,5.52,0,0,0-.43-1,4.53,4.53,0,0,1-.42-1.53,3.82,3.82,0,0,0-.57-1.8c-.27-.41-1.27-1.33-1-1.9s2.25.18,2.69.33a22.27,22.27,0,0,1,5.36,2.64l.76-1.3a3.16,3.16,0,0,0-2.81,0,.75.75,0,0,0-.27,1c1.31,2.22,3.22,4.65,6.13,3.84a.77.77,0,0,0,.53-.92,5.63,5.63,0,0,0-.86-1.94l-1.17.91c3.66,3.21,7.45,6.5,10,10.75,1.21,2.06,1.81,4.35,2.84,6.5s3,3.84,3.25,6.23l.95-.73-.89-.17a.76.76,0,0,0-.85,1.1c.54,1,2.19,1.63,2.52.08h-1.45a37.73,37.73,0,0,1,1.22,8.72c.06,2.84-.53,5.71-.19,8.53l1.47-.2a8.06,8.06,0,0,0-1.73-3.25.75.75,0,0,0-1.25.33,29.45,29.45,0,0,0-.74,6.06c0,1.35.17,2.67,1.55,3.22a.71.71,0,0,0,.73-.19,5.06,5.06,0,0,0,1.29-3.2h-1.5a9.33,9.33,0,0,1-4,8.39l1.13.64-.2-6.16c-.05-1.6.22-3.66-.42-5.17a3.76,3.76,0,0,0-1.09-1.35,2.47,2.47,0,0,1-.83-.9c-.13-.32-.06-.68-.21-1a1.21,1.21,0,0,0-2.16-.2c-.56.79.74,1.54,1.29.75Z" transform="translate(-25.3 -25.01)"/><path class="cls-5" d="M94.49,61.93,91,63.43a6.6,6.6,0,0,0-2.16,1.26,2,2,0,0,0-.63,1.59c.09.75.82,1,1,1.68.09.42-.14,1-.08,1.4a2.26,2.26,0,0,0,.35,1,2.9,2.9,0,0,0,1.38,1.09,3.47,3.47,0,0,0,3.9-1.12,7,7,0,0,0,1.19-2,5.21,5.21,0,0,1,.46-1c.37-.55.91-.59,1.44-.89a2.86,2.86,0,0,0,1.21-1.6c.11-.26.5-1.41.59-.73a4.25,4.25,0,0,1-.13.93,1.71,1.71,0,0,0,1.68,2.17A4.56,4.56,0,0,1,104,68c.61.6.67,1.92-.35,2.09l.73,1.25a3,3,0,0,0,1-3.27l-.2.73.32-.11a.76.76,0,0,0,.75-.75,2.28,2.28,0,0,0-.73-1.78c-.41-.43-2.11-1.27-1.8-2l-1.37-.57c-.13.42-.4,1.58-1.09,1.18l.34.85a10.73,10.73,0,0,0,.48-5.24.76.76,0,0,0-.92-.53,6.58,6.58,0,0,1-3.41.15l.52.92c.3-1.66,1.91-2.48,3.47-2.66,2.15-.25,2,1.53,2.18,3.09a5.93,5.93,0,0,0,1.85,3.37,9.31,9.31,0,0,1,2.59,5c.15.85,1.48.62,1.48-.2,0-.65-.26-3.26.75-3,.69.17,1.14,1.44,1.46,2a3.79,3.79,0,0,0,2.55,2.22,7,7,0,0,1,1.44.16c.86.27.63.71.42,1.48A12.88,12.88,0,0,0,116,75a8.83,8.83,0,0,0,1.32,5.3c.5.83,1.8.07,1.29-.75a7.42,7.42,0,0,1-1.13-4.15c0-1.25.66-2.34.74-3.57a2.41,2.41,0,0,0-1-2.2c-1-.65-2.28.23-3.14-.67-1.22-1.27-1.47-3.53-3.5-3.87-2.53-.43-2.2,3-2.2,4.59l1.47-.2a10.86,10.86,0,0,0-3.12-5.85,4.68,4.68,0,0,1-1.37-3,6.29,6.29,0,0,0-.54-2.43c-.87-1.57-2.82-1.51-4.34-1.08a4.76,4.76,0,0,0-3.61,3.53.76.76,0,0,0,.52.92,8.23,8.23,0,0,0,4.21-.14l-.92-.52a9.09,9.09,0,0,1-.49,4.44.77.77,0,0,0,.35.84c1.68,1,2.85-.61,3.3-2.08.24-.79-1-1.36-1.37-.57a2,2,0,0,0,.23,2.19c.53.77,2.13,1.32,2.09,2.32l.75-.75a1.93,1.93,0,0,0-1.38.55.73.73,0,0,0-.19.73,1.62,1.62,0,0,1-.64,1.81c-.65.52.08,1.36.73,1.25A2.43,2.43,0,0,0,106,69a3.28,3.28,0,0,0-2.42-2.94,5.69,5.69,0,0,0-1.06-.27c-.29-.06-1.08,0-1.29-.15-.45-.31-.06-1.05,0-1.6,0-1.16-.84-2.14-2-1.67a2.31,2.31,0,0,0-1.23,1.3c-.34.76-.49,1.26-1.32,1.63a3.25,3.25,0,0,0-.93.56C94.41,67,94.53,69.13,92.89,70a1.69,1.69,0,0,1-1.71,0c-.65-.44-.52-.91-.49-1.59a2.64,2.64,0,0,0-.58-1.89q-.47-.21-.18-.72a2.41,2.41,0,0,1,.54-.41,10.39,10.39,0,0,1,1.31-.61l3.47-1.5c.89-.38.12-1.68-.76-1.3Z" transform="translate(-25.3 -25.01)"/><path class="cls-5" d="M111.25,66a9,9,0,0,0,1.2-2.37c.22-.85.13-1.73.27-2.59,0-.28.27-1.27.71-1.13.12,0,.33.34.44.4a1.21,1.21,0,0,0,.64.18,1.43,1.43,0,0,0,1.09-.66,3.54,3.54,0,0,0,.42-1s.11-.31.14-.29-.39.06-.31,0l0,0s0,.28,0,.29-.07.23-.1.35a2.7,2.7,0,0,0-.15,1.38c.2.86,1,1.07,1.58,1.62a3.47,3.47,0,0,1,.92,1.74,3,3,0,0,1,0,1,1.9,1.9,0,0,1-.14.57c-.07.16,0,.16-.21.15a9.32,9.32,0,0,1-1.38-.26L114.75,65v1.44a1.2,1.2,0,0,0,.79-1.78.76.76,0,0,0-1.3,0c-.2.44-.49,1.2-1,1.28s-.37-.68-.34-1c.08-1-1.42-1-1.5,0-.1,1.15.29,2.41,1.64,2.49s2.06-1,2.55-2h-1.3c-.07-.15,0-.27.09-.33s.16-.13,0-.09c-.75.1-.68,1.28,0,1.44a24.74,24.74,0,0,0,3.3.67c1.16.11,1.76-.78,1.93-1.82a4.84,4.84,0,0,0-2-4.72c-.14-.1-.48-.22-.56-.37s0-.23,0-.34a4,4,0,0,0,.24-1.29c-.06-.9-.77-1.76-1.76-1.43a1.64,1.64,0,0,0-.93,1c-.07.18-.1.37-.17.54a2.12,2.12,0,0,0-.11.21.12.12,0,0,1-.05.05c.31.08.41.07.29,0a1.43,1.43,0,0,0-1.16-.6,1.93,1.93,0,0,0-1.32.54c-.89.79-.93,2.07-1,3.17a4.54,4.54,0,0,1-.31,1.63A12.64,12.64,0,0,1,110,65.2c-.5.83.8,1.58,1.3.76Z" transform="translate(-25.3 -25.01)"/><path class="cls-5" d="M120.2,64.1c-1,.14-1.38,1.28-1.52,2.12a5.29,5.29,0,0,0,.31,2.92,5.47,5.47,0,0,0,.78,1.32,4,4,0,0,1,.69,1.08c.32.91.16,1.89.74,2.73s1.84,0,1.29-.76A5.79,5.79,0,0,1,122,71.4a6,6,0,0,0-1.21-2.08,3.84,3.84,0,0,1-.67-2,3.63,3.63,0,0,1,.13-1.14,1.79,1.79,0,0,1,.16-.44.6.6,0,0,1,.09-.13c.09-.08-.1,0,.12,0a.74.74,0,0,0,.52-.92.77.77,0,0,0-.92-.52Z" transform="translate(-25.3 -25.01)"/><path class="cls-5" d="M118.53,87.81l-.12.19,1,1a20.08,20.08,0,0,0,2.29-3.09,1.38,1.38,0,0,0-.42-1.91.77.77,0,0,0-.91.12c-.78.61-2.47,1.59-2.5,2.72a1.08,1.08,0,0,0,1.67,1,.78.78,0,0,0,.34-.85c-.56-2.37-1.1-4.79-.28-7.16l-1.47-.2.64,5.19,1.47-.2a11.4,11.4,0,0,1,1.42-10.25l-1.4-.38.16,1.66,1.12-.65a5.37,5.37,0,0,1-1.68-3.78c-.14-1.1.11-2.71-.58-3.64a1.63,1.63,0,0,0-1.46-.65,6.09,6.09,0,0,0-.85.17,1.51,1.51,0,0,1-1.14-.27c-.85-.43-2-.72-2.67.2a1.44,1.44,0,0,0,.88,2.15c1.17.45,3.19-.52,3.56,1.12.33,1.47-.1,3.25-.23,4.74-.1,1.22-.36,2.63.65,3.56a.76.76,0,0,0,1.06,0,2.64,2.64,0,0,0,.65-1.76c0-.94-.27-1.77.43-2.55.92-1,1.85-2.19.79-3.51l-.53,1.28a2.3,2.3,0,0,0,2.13-1.33c.41-.87-.88-1.63-1.29-.76a.87.87,0,0,1-.84.59.76.76,0,0,0-.53,1.28c.34.42-.54,1.11-.79,1.39a3.46,3.46,0,0,0-.79,1.24c-.28.87.3,2.36-.29,3.07h1.06c-.45-.42-.33-1.1-.28-1.66.06-.77.13-1.55.2-2.32a13.83,13.83,0,0,0,.1-3.4,2.76,2.76,0,0,0-1.3-2,3,3,0,0,0-1.43-.31c-.27,0-.54,0-.81,0,0,0-1.25,0-1.13-.13a6.1,6.1,0,0,0,1.16.69,2.41,2.41,0,0,0,1.35.22,3.34,3.34,0,0,1,.76-.17c.59.08.48.46.52.9s0,1,.11,1.55c.21,2.09.73,4,2.46,5.38a.75.75,0,0,0,1.13-.64L121.79,74a.75.75,0,0,0-1.39-.38A12.85,12.85,0,0,0,118.82,85c.26.75,1.59.69,1.48-.2l-.64-5.19a.76.76,0,0,0-1.48-.2c-.9,2.62-.34,5.34.29,8l.34-.85-.14.1.58-.07c.2.33.39.34.57,0,.18-.16.35-.32.54-.47.36-.32.73-.61,1.11-.91l-.91.12c-.24-.16-2.17,2.62-2.42,2.94-.47.62.43,1.39,1,1a1.68,1.68,0,0,0,.81-1.89c-.18-.94-1.63-.54-1.45.4Z" transform="translate(-25.3 -25.01)"/><path class="cls-5" d="M121.68,63.45a2.46,2.46,0,0,0-.36.06,1.87,1.87,0,0,0-.32.15,1.39,1.39,0,0,0-.27.21,1.94,1.94,0,0,0-.23.27l-.09.14a1.61,1.61,0,0,0-.13,1,.64.64,0,0,0,.13.26.76.76,0,0,0,.21.19.71.71,0,0,0,.28.09.51.51,0,0,0,.3,0,.74.74,0,0,0,.45-.34l.08-.18a.9.9,0,0,0,0-.4.13.13,0,0,1,0-.06l0,.2V64.9l0,.19a.73.73,0,0,1,0-.2l-.07.18a.52.52,0,0,1,.1-.18l-.11.15a.54.54,0,0,1,.15-.15l-.16.11.18-.1-.18.08a.48.48,0,0,1,.18,0l-.2,0h0a.48.48,0,0,0,.29-.06.54.54,0,0,0,.24-.16.45.45,0,0,0,.16-.24.56.56,0,0,0,.06-.29.77.77,0,0,0-.22-.53l-.15-.11a.73.73,0,0,0-.38-.11Z" transform="translate(-25.3 -25.01)"/><path class="cls-5" d="M118.72,61.17l1-2.58a.75.75,0,0,0-.07-.57.74.74,0,0,0-1-.27.9.9,0,0,0-.35.44l-1,2.59a.72.72,0,0,0,.08.57.76.76,0,0,0,.44.35.78.78,0,0,0,.58-.08.83.83,0,0,0,.35-.45Z" transform="translate(-25.3 -25.01)"/><path class="cls-5" d="M88,49.79a2.86,2.86,0,0,0,1,3.82.76.76,0,0,0,1.11-.85s0,0,0,.06,0-.11,0-.07a.89.89,0,0,1,.16-.22c.15-.15.32-.27.48-.41a2.07,2.07,0,0,0,.79-1.23,1.3,1.3,0,0,0-2.07-1.25.75.75,0,0,0,0,1.06,6.88,6.88,0,0,0,1.28.87,2.06,2.06,0,0,1,.8.68.4.4,0,0,1,.08.36,3.51,3.51,0,0,1-.19.54,2.26,2.26,0,0,0-.19,1.4,1.4,1.4,0,0,0,1,1.07,1.54,1.54,0,0,0,1.41-.42,3.55,3.55,0,0,0,.75-1.12l.72-1.53c.18-.38.07-1-.45-1.1,0,0-.22-.05-.1,0,0,0-.16-.12-.08,0a.72.72,0,0,1-.19-.27,2.12,2.12,0,0,1-.11-.21l0-.11a6,6,0,0,0-.25-.58,1.84,1.84,0,0,0-2-1.14.75.75,0,0,0-.52.92c0-.44.13-.67.41-.68,0,0,0,0,0,0s.11,0,.12,0l0,0-.09-.08-.15-.15a1.31,1.31,0,0,0-1.14-.32c-.51.08-.63.71-.45,1.1-.08-.17.07.17,0,.06s0,0,0,0q0-.12,0,0s-.09.24,0,.12a.67.67,0,0,1-.11.18c.09-.1-.06.06-.07.07s0,0-.08,0-.08,0,0,0l-.07,0h0c-.09,0-.1,0,0,0a.75.75,0,0,0-.4,1.45,20.59,20.59,0,0,1,2.22.56,6.78,6.78,0,0,1,1,.39l.3.18,0-.13a.35.35,0,0,1,.14-.27l1,.27-.73-1.57a.76.76,0,0,0-1-.27.78.78,0,0,0-.27,1l.73,1.57a.77.77,0,0,0,1,.27,1.2,1.2,0,0,0,.45-1.61,2.41,2.41,0,0,0-1.25-.94,15.8,15.8,0,0,0-3.17-.93l-.4,1.45a1.94,1.94,0,0,0,2.08-2.73L91,50.29c-.29,0-.41-.15-.2.05a2.88,2.88,0,0,0,.33.28,1.24,1.24,0,0,0,.72.21,1,1,0,0,0,1-1.21l-.53.92c-.07,0-.15,0,0,0-.15-.07.09.07,0,0a.91.91,0,0,1,.2.21,1.59,1.59,0,0,1,.13.22s.1.21.06.11c.07.17.13.34.21.51a2,2,0,0,0,1.42,1.32l-.45-1.1-.62,1.32c-.09.19-.17.38-.26.56a2,2,0,0,1-.24.34l-.12.12h0c-.11.08-.12,0,0,0a.76.76,0,0,1,.16.06l0,0c0-.07,0-.08,0,0s0-.09,0,0,0,0,0,0,0-.24,0-.11a3.69,3.69,0,0,1,.19-.56,2.12,2.12,0,0,0-.4-2.48c-.56-.61-1.37-.83-2-1.38V50.7a.45.45,0,0,1-.46.07c.08,0,0,0,0,0s0,0,0,0l0-.05q0,.1,0,0a.25.25,0,0,1,0-.08l0,0-.07.11a.27.27,0,0,1-.06.07l-.36.32a2,2,0,0,0-.92,2l1.1-.84-.16-.1c-.1-.07.07.06,0,0s-.21-.22-.16-.15a1,1,0,0,1-.25-.52.83.83,0,0,1,0-.15c0-.12,0,.16,0-.06V51c0-.13,0,.09,0,0s0-.13,0-.18,0-.1,0-.15c0,.13.06-.08.06-.08a.75.75,0,0,0-1.3-.76Z" transform="translate(-25.3 -25.01)"/><path class="cls-5" d="M89.07,46.79l.09.82L90.29,47c-.1-.07.18.12,0,0,.08.12.1.14.06.08l0-.06c-.06-.1.07.21,0,0s0,.2,0,.08,0-.09,0-.13c0,.14,0,.18,0,.1s0,0,0-.06-.09.19,0,0-.12.14,0,.06-.18.12,0,0-.19.1,0,0l-.11,0h.07c.13,0-.19,0-.07,0l.07,0-.09,0a.67.67,0,0,0,.11.07l-.07,0,0,0-.06-.08,0,0c0,.06-.1-.19,0,0,0-.15,0-.18,0-.08a.41.41,0,0,1,0,.11c0-.11,0-.13,0,0l0,.1,0,.17a3,3,0,0,0,.69,2.47.75.75,0,0,0,1.06,0,.78.78,0,0,0,0-1.06c0-.05-.06-.1,0,0l0,0-.08-.13a1,1,0,0,1-.08-.14l0-.06c-.06-.12,0,.12,0,0a2.29,2.29,0,0,1-.09-.28l0-.15c0-.1,0,.17,0,.07a.28.28,0,0,0,0-.09c0-.11,0-.21,0-.32s0,.14,0,0,0-.14,0-.21a1.58,1.58,0,0,0-.09-1.05,1.47,1.47,0,0,0-1.3-.79,1.35,1.35,0,0,0-1.29,1,1.45,1.45,0,0,0,.6,1.63.74.74,0,0,0,.76,0,.72.72,0,0,0,.37-.64l-.09-.82a.81.81,0,0,0-.22-.53.75.75,0,0,0-.53-.22c-.37,0-.8.33-.75.75Z" transform="translate(-25.3 -25.01)"/><path class="cls-5" d="M89.6,47.76l.05.11-.08-.18a1.12,1.12,0,0,1,.08.26l0-.2a1.71,1.71,0,0,1,0,.32l0-.2a1.68,1.68,0,0,1-.09.32l.08-.18a1.35,1.35,0,0,1-.15.26l.11-.16a.87.87,0,0,1-.16.17.77.77,0,0,0-.22.53.73.73,0,0,0,.22.53.75.75,0,0,0,.53.22l.2,0a.82.82,0,0,0,.33-.2,1.62,1.62,0,0,0,.37-.45,3.73,3.73,0,0,0,.16-.35,1.94,1.94,0,0,0,0-.2,1.78,1.78,0,0,0,0-.69,1.71,1.71,0,0,0-.21-.65.77.77,0,0,0-.45-.34.72.72,0,0,0-.57.08.73.73,0,0,0-.35.44.83.83,0,0,0,.08.58Z" transform="translate(-25.3 -25.01)"/><path class="cls-5" d="M56.4,37.78c1.16-.39,1.92,1.45,2.66,2.08a21.16,21.16,0,0,0,2.47,1.47c1.26.81,1.39,1.58.91,2.9a3.09,3.09,0,0,0,0,2.44A10.16,10.16,0,0,0,64,49c.79,1,1.54,2,2.38,2.88a5.46,5.46,0,0,0,2.21,1.62,2.58,2.58,0,0,0,1.26.11c.07,0,.94-.27.87-.34l-.2-.73,0,.17c-.11.63.73,1.39,1.25.73A2.83,2.83,0,0,0,72,50.27c-.34-.69-.89-1.25-1.22-1.94-.53-1.11.05-2.28.51-3.31,1.18-2.61,2.73-5.63,5.76-6.34a.76.76,0,0,0,.18-1.37c-.68-.33-.38-1.91-.55-2.57s-1-1.9-1.87-1.37A.76.76,0,0,0,75,32.19c-1.52-1.65-3-3.72-4.86-5-1.72-1.18-4-.83-5.86-.35a16.72,16.72,0,0,0-9.62,6.79.76.76,0,0,0,0,.76l.6.93v-.76a1.63,1.63,0,0,0,.31,2.23c.74.61,1.81-.45,1.06-1.06l-.07-.41a.74.74,0,0,0,0-.76l-.6-.93v.76a15,15,0,0,1,8.35-6c2-.55,4-.91,5.64.57,1.43,1.31,2.68,2.87,4,4.29l.16-1.17a1.17,1.17,0,0,0-.55,1.44c.29.88,1.36.79,1.7,1.5s.07,1.45.2,2.09a1.93,1.93,0,0,0,1.06,1.49l.18-1.37c-2.93.69-4.74,3.18-6,5.74-.7,1.38-1.63,3-1.56,4.59a4,4,0,0,0,.63,1.86c.43.73,1.72,2,1,2.91l1.25.73a1,1,0,0,0-.9-1.25A2.64,2.64,0,0,0,70,52a2.22,2.22,0,0,1-2.28-.9A43.08,43.08,0,0,1,65,47.71a5.69,5.69,0,0,1-1.23-1.77c-.21-.72.22-1.32.43-2,.66-2.13-1-3.51-2.71-4.4a5.89,5.89,0,0,1-1.74-1.18c-.41-.44-.71-1-1.15-1.4A2.51,2.51,0,0,0,56,36.33c-.91.31-.52,1.76.4,1.45Z" transform="translate(-25.3 -25.01)"/><path class="cls-5" d="M49.91,32.82l-1.23,2.8a.77.77,0,0,0,.27,1,2.76,2.76,0,0,0,2.7,0,6.28,6.28,0,0,0,1.94-1.9.72.72,0,0,0,0-.76s-.05.09,0-.08a1.48,1.48,0,0,1,.26-.39c.28-.31.61-.6.91-.89a9.94,9.94,0,0,1,.81-.78c.18-.14.41-.3.56-.21l.18-1.37a12.13,12.13,0,0,0-4.15,1.9c-.6.39-1.37.77-1.64,1.48a1.28,1.28,0,0,0,1.08,1.75l-.53-1.28-.61.7a.77.77,0,0,0,0,1.06.75.75,0,0,0,1.06,0l.61-.7a.76.76,0,0,0-.53-1.28.29.29,0,0,1,.32.19.08.08,0,0,1,0,.08c0,.08,0,.07,0,0l.06,0a2.51,2.51,0,0,1,.54-.38c.43-.29.87-.58,1.32-.84a8.89,8.89,0,0,1,2.84-1.15.77.77,0,0,0,.18-1.38c-1.23-.77-2.38.43-3.19,1.23s-2.17,1.91-1.4,3.18V34c-.54.71-1.56,2-2.59,1.39l.27,1,1.23-2.8a.77.77,0,0,0-.27-1,.75.75,0,0,0-1,.27Z" transform="translate(-25.3 -25.01)"/><path class="cls-5" d="M47.3,35.72a4.46,4.46,0,0,0,.12,2.93,2.51,2.51,0,0,0,.88,1,2,2,0,0,0,1.44.24.75.75,0,0,0,.52-.92.77.77,0,0,0-.92-.52c-.13,0,.14,0,0,0h-.09c-.12,0,0,0,.05,0a.15.15,0,0,0-.09,0l-.1,0c-.09,0,.16.08,0,0l-.18-.1c-.07,0,.14.12,0,0L49,38.23l-.14-.16c-.07-.06.09.14,0,0l0-.08c0-.06-.07-.14-.11-.2s0,.14,0,0,0-.09,0-.13a1.09,1.09,0,0,1,0-.26c0,.06,0,.12,0,0v-.14a1.22,1.22,0,0,1,0-.27,2.83,2.83,0,0,1,0-.29.49.49,0,0,1,0-.12v.08l0-.08c0-.19.06-.37.1-.56a.77.77,0,0,0-.53-.92.76.76,0,0,0-.92.52Z" transform="translate(-25.3 -25.01)"/><path class="cls-5" d="M50.23,37.41a5,5,0,0,0-2.17-.1.76.76,0,0,0-.45.34.77.77,0,0,0,.27,1l.18.08a.9.9,0,0,0,.4,0h.06l-.19,0a4.43,4.43,0,0,1,1.15,0l-.2,0a3.35,3.35,0,0,1,.55.11.75.75,0,0,0,.92-.52.77.77,0,0,0-.52-.93Z" transform="translate(-25.3 -25.01)"/><path class="cls-5" d="M50.29,40.58,48.06,41a.78.78,0,0,0-.56.72A3,3,0,0,1,47,43.2l.85-.35c-.13,0-.35-.32-.18-.45A.75.75,0,0,0,47.05,41,1.71,1.71,0,0,0,45.88,43a5.44,5.44,0,0,0,.57,2.77,1.34,1.34,0,0,0,1.11.5c.46,0,.84-.36,1.28-.39s1.08.56,1.47.81l1.44,1a4.36,4.36,0,0,1,1.22,1c.39.58,0,1.18-.42,1.63A5.09,5.09,0,0,0,51,52.52a2.14,2.14,0,0,0,.79,2.12,2,2,0,0,0,.46.23c.26.07.61,0,.84.05s.4.53.45.91A.75.75,0,0,0,55,56a8.57,8.57,0,0,1,1-2.22.74.74,0,0,0,0-.76c-.17-.28-.46-.66-.39-1s.39-.53.5-.85,0-.65,0-1c.12-.54.59-.08.82.19a.75.75,0,0,0,1.06,0,1.69,1.69,0,0,0-.52-2.54,3.67,3.67,0,0,1-1.15-1.17c-.31-.53-.54-1.09-.85-1.61a8.39,8.39,0,0,0-5.08-3.79c-.64-.15-.87.13-1.4.45a4,4,0,0,0-1.37,1.07,1.61,1.61,0,0,0,.44,2.42,1.34,1.34,0,0,0,1.2,0c.24-.12.33-.31.52-.47,0,0,.16-.15.07-.13s.34.21.41.24a8.78,8.78,0,0,1,3,2.22,2.86,2.86,0,0,1,0,3.77c-.71.86-1.39,2-.63,3.06a.75.75,0,0,0,1.37-.58,3.13,3.13,0,0,1,.15-2.11c.25-.56.65-1,.89-1.58a4.48,4.48,0,0,0-.4-3.69,8,8,0,0,0-5.33-4.18c-.94-.22-1.34,1.22-.4,1.44a6.48,6.48,0,0,1,4.6,3.9,2.76,2.76,0,0,1,.2,1.83,9.62,9.62,0,0,1-.8,1.39,4.67,4.67,0,0,0-.35,3.4L54,53.23c-.43-.59.46-1.28.79-1.73a3.94,3.94,0,0,0,.77-2,5,5,0,0,0-1.66-4,9.43,9.43,0,0,0-1.85-1.35,6.73,6.73,0,0,0-2-1,1.25,1.25,0,0,0-.92.18,1.22,1.22,0,0,0-.32.32s-.31.38,0,.2c.07,0,.14-.25.21-.32a1.9,1.9,0,0,1,.49-.35,7.64,7.64,0,0,0,1.07-.71l-.73.19A7,7,0,0,1,54,45.49c.48.68.76,1.47,1.21,2.17a4.24,4.24,0,0,0,.85,1c.1.09,1,.7.94.71h1.06a2.21,2.21,0,0,0-2-.87,1.66,1.66,0,0,0-1.42,1.26c-.06.3.11.68,0,1s-.43.51-.53.83a2.86,2.86,0,0,0,.54,2.27v-.76a10,10,0,0,0-1.16,2.58l1.48.2a2.92,2.92,0,0,0-.84-2,1.67,1.67,0,0,0-1.11-.39c-.39,0-.6,0-.63-.46,0-.78,1-1.49,1.4-2.05a2.71,2.71,0,0,0,.61-2.64,4.25,4.25,0,0,0-1.87-1.88c-.87-.58-1.72-1.22-2.63-1.74a2.11,2.11,0,0,0-1.17-.32c-.38,0-.76.34-1.12.34s-.15,0-.15-.29a6.66,6.66,0,0,0-.09-.75c0-.15-.18-1.12,0-1.15l-.58-1.37a1.8,1.8,0,0,0,.53,3.19.78.78,0,0,0,.85-.35A4.63,4.63,0,0,0,49,41.76l-.55.73L50.68,42c1-.19.55-1.64-.39-1.45Z" transform="translate(-25.3 -25.01)"/><path class="cls-5" d="M40.7,41.19l1.06.48.18-1.37a3,3,0,0,0-1.73,1.85,3.59,3.59,0,0,0,.3,2.43,2.16,2.16,0,0,1,.16.55c0-.1,0,.12,0,.14s0,.07,0,.09-.06.06-.08.07-.08,0-.1,0-.16,0-.19.05l-.24,0c.11,0-.1,0-.13,0h-.32l-.68,0-1.59,0,.72,1a4.43,4.43,0,0,1,1.26-2,10.49,10.49,0,0,0,1.64-2.7l-1.47-.2c0,.78-.52,1.47-.66,2.23a2.29,2.29,0,0,0,.6,2.25L39.52,45A.64.64,0,0,1,40,45,.75.75,0,0,0,39,45,.76.76,0,0,0,39,46a1.11,1.11,0,0,0,1.33.22.75.75,0,0,0,.15-1.18c-.15-.12-.14-.1-.2-.25.05.13,0-.29,0-.14a1.93,1.93,0,0,1,0-.24s0-.23,0-.12a2,2,0,0,1,.11-.42,6.61,6.61,0,0,0,.61-2.25.74.74,0,0,0-.65-.73.77.77,0,0,0-.83.53A8.84,8.84,0,0,1,38,43.78a5.11,5.11,0,0,0-1.4,2.43.76.76,0,0,0,.72.95c.94,0,1.91,0,2.84-.1a2.05,2.05,0,0,0,2-1.61,2.57,2.57,0,0,0-.2-1.31c-.08-.21-.16-.41-.23-.61l-.09-.27,0-.16h0a1.3,1.3,0,0,1,.19-.81,1.08,1.08,0,0,1,.28-.35c.16-.15-.07,0,.1-.08s.26-.14.18-.11a.78.78,0,0,0,.54-.62.74.74,0,0,0-.36-.75l-1.07-.49a.75.75,0,0,0-.75,1.3Z" transform="translate(-25.3 -25.01)"/><path class="cls-5" d="M36,45.24C33,48.51,30,51.88,28.38,56a40,40,0,0,0-1.8,6.9,60.59,60.59,0,0,0-1.13,7c-.45,5,.4,9.92,1.39,14.76a5.83,5.83,0,0,0,1,2.58c.65.82,1.44,1.05,1.64,2.2A8.6,8.6,0,0,0,32,94.34c.7.67,1.76-.39,1.06-1.06a6.84,6.84,0,0,1-1.77-2.63C31,89.78,31,88.81,30.67,88a3.85,3.85,0,0,0-1.29-1.34,4.52,4.52,0,0,1-1.18-2.87c-.89-4.59-1.68-9.2-1.25-13.89a62.26,62.26,0,0,1,1.17-7,40.11,40.11,0,0,1,1.55-6c1.54-4,4.51-7.33,7.34-10.5.65-.72-.41-1.79-1.06-1.06Z" transform="translate(-25.3 -25.01)"/><path class="cls-5" d="M30.67,88.74c-.2,1.79,1,3.08,2.15,4.31a6.33,6.33,0,0,1,1.68,2.76,6.31,6.31,0,0,0,1.09,2.69c1.19,1.37,3.78,2.47,5.58,2a2.71,2.71,0,0,0,1.89-3.69.74.74,0,0,0-.84-.34,1.71,1.71,0,0,0-1.32,1.63c-.11,1.16,1.11,2.29.85,3.34-.14.57.55,1.27,1.1.84s1.5-1.22,2.25-1.08c1.07.19,1,1.53,1.29,2.32a2.47,2.47,0,0,0,2.46,2,.76.76,0,0,0,.38-1.4l-4.34-2.76.15,1.18a1.33,1.33,0,0,1,.61-.51.76.76,0,0,0-.38-1.4,11.91,11.91,0,0,1-3.14-.51l.55.72a2.93,2.93,0,0,1,1-2l-1.18-.16.91,1.63L44,99.13a5.78,5.78,0,0,1-5.2-3,8.8,8.8,0,0,1-1-2.85,7.05,7.05,0,0,1-.14-1.52c0-.48.45-2.18,1.35-1.31a.74.74,0,0,0,1.17-.16,2.83,2.83,0,0,0,.14-2.21l-.72,1A5,5,0,0,1,44,92.88l1.37-.58a6.32,6.32,0,0,1-1.11-4.71l-1.37.18A7.76,7.76,0,0,1,44,92.21l1.28-.53c-3.42-2.8,2-6.41,2.22-9.28a4.37,4.37,0,0,1,.67-2.55,23.63,23.63,0,0,1,1.65-2.22,26.43,26.43,0,0,1,3.93-3.84l-1.26-.33.32,2.12a.76.76,0,0,0,1.26.33,5.79,5.79,0,0,1,2.21-1.5c.89-.34.51-1.79-.4-1.44A7.66,7.66,0,0,0,53,74.85l1.26.33-.32-2.12c-.09-.62-.87-.63-1.25-.33a26.87,26.87,0,0,0-4.58,4.65A15.35,15.35,0,0,0,46.31,80c-.44.91-.13,1.83-.43,2.75a13.28,13.28,0,0,1-1.77,2.77,8.33,8.33,0,0,0-1.26,2.84,4.45,4.45,0,0,0,1.37,4.34.76.76,0,0,0,1.28-.53A9.28,9.28,0,0,0,44.22,87c-.3-.51-1.27-.48-1.37.18a7.87,7.87,0,0,0,1.25,5.87.75.75,0,0,0,1.37-.58,6.49,6.49,0,0,0-5.89-4.94.75.75,0,0,0-.72.95,1.23,1.23,0,0,1,0,1.06l1.18-.15a2.19,2.19,0,0,0-3.31.34c-1,1.32-.61,3.29-.22,4.74.93,3.44,3.77,6.28,7.5,6.15a.77.77,0,0,0,.65-1.13l-.91-1.63a.76.76,0,0,0-1.18-.15,4.45,4.45,0,0,0-1.4,3.07.76.76,0,0,0,.55.72,13.29,13.29,0,0,0,3.54.57l-.38-1.39a3.09,3.09,0,0,0-.91.74.77.77,0,0,0,.15,1.18l4.34,2.76.38-1.4c-1.13.12-1.15-1.6-1.4-2.33A2.81,2.81,0,0,0,46.27,100c-1.42-.84-3,.09-4.17,1l1.1.85A2.78,2.78,0,0,0,43,100c-.11-.26-1.16-1.89-.41-2.07l-.84-.34c.51,1.19-1.22,1.59-2,1.48a6.19,6.19,0,0,1-2.37-1c-1.37-.86-1.24-2.31-1.8-3.64-.82-2-3.72-3.43-3.47-5.71.11-1-1.39-.95-1.5,0Z" transform="translate(-25.3 -25.01)"/><path class="cls-5" d="M34.83,48.09a1.51,1.51,0,0,0,1,1.52,2.2,2.2,0,0,0,2-.21c.14-.08.27-.17.4-.26a1,1,0,0,0,.2-.13s-.21-.23-.23-.07.43.6.59.7a2.45,2.45,0,0,0,1.69.1c.3,0,.26,0,.55.24a1.32,1.32,0,0,0,1,.21,6.08,6.08,0,0,0,1.93-1.09c1.38-1,.61-2.69.56-4.11a4.14,4.14,0,0,1,1.74-3.94.75.75,0,0,0-.76-1.3,5.06,5.06,0,0,0-2.39,3.71,9.87,9.87,0,0,0,0,2.66c0,.41.15.81.18,1.22s-.16.52-.49.72l-.56.35c-.12.07-.4.33-.55.32.23,0-.15-.21-.18-.22a1.43,1.43,0,0,0-.52-.23,2.51,2.51,0,0,0-1,0c-.1,0-.2,0-.3,0s-.08,0-.13,0c-.25-.22-.28-.55-.62-.74a1.25,1.25,0,0,0-1.16,0,8.68,8.68,0,0,1-.92.56c-.23.1-.52.13-.49-.1.05-.4-.38-.74-.75-.75a.77.77,0,0,0-.75.75Z" transform="translate(-25.3 -25.01)"/><path class="cls-5" d="M44.05,48.67a1.36,1.36,0,0,1,.83,1,.76.76,0,0,0,1.1.45A9.56,9.56,0,0,0,49,47.52l-1.37-.18c.1.57.26,1.5-.31,1.79s-1.08,0-1.59.28a3,3,0,0,0-1,1c-.39.59-.17,1.18-.52,1.78C43.53,53.37,42,54.19,41,55a8.88,8.88,0,0,0-2.57,2.85c-.84,1.69-1,4,.5,5.39,1,.91,2.46.93,3.44,1.89a9.1,9.1,0,0,1,1.9,3.66.76.76,0,0,0,1.37.18c1.11-1.55,2.61-3.14,3.35-4.91a28,28,0,0,0,1.13-5.71c.11-.65.54-1.19,1.06-.41a8.45,8.45,0,0,1,.48.95A3.54,3.54,0,0,0,53,60.47c1.33.67,2.27-.42,2.66-1.59l-.73.56c1.45-.12.89,2.91,1.06,3.75a3,3,0,0,0,2,2.18c.24.1.75.23.88.46.22.4-.18.82-.45,1a8.9,8.9,0,0,1-2.28,1L50.67,69.9a.76.76,0,0,0-.33,1.25,1.9,1.9,0,0,0,1.17.6c.28,0,.56,0,.84,0,.63.06.7.07.85.65.24.92-.18,1.91.94,2.4.87.39,1.64-.91.75-1.29-.36-.16-.17-1.15-.22-1.5a2.17,2.17,0,0,0-.45-1.12,1.88,1.88,0,0,0-1.1-.58c-.47-.1-1.36.13-1.72-.25l-.33,1.26c2.44-.91,5-1.69,7.38-2.77,1.29-.58,2.77-2,1.82-3.46A3.29,3.29,0,0,0,58.72,64c-.69-.31-1.09-.53-1.25-1.32a9.26,9.26,0,0,1,0-1.58c0-1.46-.73-3.33-2.49-3.19a.77.77,0,0,0-.72.55c-.53,1.59-1.47-.82-1.77-1.28A3.13,3.13,0,0,0,51.23,56c-1.26-.59-2.22.4-2.49,1.56-.41,1.83-.44,3.79-1,5.58s-2.27,3.53-3.39,5.08l1.38.18C45,66.18,44,63.88,41.66,62.94c-1.45-.58-2.55-1.11-2.36-2.88a5.46,5.46,0,0,1,2.13-3.47c1.12-1,2.4-1.76,3.43-2.83a4.73,4.73,0,0,0,.94-1.33c.17-.39.07-1,.23-1.27.31-.64,1.31-.34,1.86-.53a1.84,1.84,0,0,0,.92-.73,4,4,0,0,0,.29-3c-.13-.71-1-.63-1.37-.18a7.58,7.58,0,0,1-2.51,2.1l1.1.45a2.5,2.5,0,0,0-1.51-1.93c-.87-.39-1.64.9-.76,1.29Z" transform="translate(-25.3 -25.01)"/><path class="cls-5" d="M46.3,51.23a6.51,6.51,0,0,1,.62,1c0,.1-.06-.16,0,0s0,.07,0,.11.07.29.07.29,0-.15,0,0v.24c0,.09-.06.09,0,0a1.6,1.6,0,0,0-.05.21l0,.12s.08-.17,0,0l-.06.11c-.06.11.08-.07,0,0l-.15.14s.13-.09,0,0,0,0,0,0-.22.06-.27.08a2.12,2.12,0,0,0-.65.24l1,1A3.57,3.57,0,0,0,47,50.78a.75.75,0,0,0-1.3.76l2.07,3.28a.75.75,0,0,0,1,.26.76.76,0,0,0,.27-1L47,50.78l-1.3.76a1.53,1.53,0,0,1,.21.37c-.05-.18,0,0,0,0l.06.2c0,.07,0,.14.05.21s0-.16,0,0,0,.27,0,.41,0,.12,0,.18,0,.07,0,0A.43.43,0,0,1,46,53a2.37,2.37,0,0,1-.09.36,1,1,0,0,1,0,.1c0,.08,0,.07,0,0a.69.69,0,0,1-.07.15,3.17,3.17,0,0,1-.23.36.76.76,0,0,0,.11.91.77.77,0,0,0,.91.12l.08,0s0,0-.06,0l.17,0,.3-.08a1.79,1.79,0,0,0,.71-.4,2.07,2.07,0,0,0,.65-1.18,3.71,3.71,0,0,0-.88-2.79.77.77,0,0,0-1-.27.76.76,0,0,0-.27,1Z" transform="translate(-25.3 -25.01)"/><path class="cls-5" d="M98.46,52.12a14,14,0,0,1-4.42,6l2.56,1.06a2.19,2.19,0,0,0-1.09-2l.3,2.36c1.26-1,2.22-2.34,3.56-3.2a26,26,0,0,1,4.69-1.84c2.7-1.06,5.48-3.28,5.2-6.49-.11-1.16-1.66-2.16-2.56-1.06l-2.23,2.68c-1,1.21.31,3.41,1.82,2.36a5,5,0,0,0,2-2.19,2.72,2.72,0,0,0,.15-1.44c-.07-.44-.42-.89-.4-1.27a8.2,8.2,0,0,1,.61-1.49,9,9,0,0,0,.41-1.63,12,12,0,0,0,.08-3.54c-.25-1.86-3.16-2-3,0a29,29,0,0,0,1.16,6.27c.59,1.88,2,3.94,1.52,6-.22,1-.65,1.94-.86,3a18.25,18.25,0,0,0-.34,3,39.9,39.9,0,0,0,.44,6.27c.24,1.89,3.24,1.92,3,0a38.73,38.73,0,0,1-.44-6.27,13.11,13.11,0,0,1,.44-3.11,23.13,23.13,0,0,0,.81-2.93c.27-2.09-.71-3.91-1.38-5.83a25.15,25.15,0,0,1-1.35-6.35h-3a9.42,9.42,0,0,1-.7,5.16,3.51,3.51,0,0,0-.42,2.15c.07.31.38.72.39,1s-.32.44-.64.66l1.82,2.35,2.23-2.68L106.26,48c.26,2.94-3.57,3.78-5.68,4.52a12.29,12.29,0,0,0-3.68,1.91c-1.14.92-2.06,2.07-3.21,3A1.52,1.52,0,0,0,94,59.77l-.4-.62a1.52,1.52,0,0,0,2.56,1.06,16.78,16.78,0,0,0,5.19-7.29c.68-1.81-2.22-2.59-2.89-.8Z" transform="translate(-25.3 -25.01)"/><path class="cls-5" d="M111.82,61.67a4.62,4.62,0,0,1,1.48-4.34c1.29-1.23,3.56-1.26,4-3.28a6.42,6.42,0,0,0-.55-3.1,23.92,23.92,0,0,0-1.27-3.05,21.91,21.91,0,0,0-3.88-5.42c-1-1-3,0-2.51,1.46a49.21,49.21,0,0,1,1.46,4.9c.2.8.37,1.6.52,2.41.08.4.15.81.22,1.21,0,.18.24.85.13,1l.54-.53,0,0h.8l-.22,0,.36,2.74A4.53,4.53,0,0,0,115,53.13a1.51,1.51,0,0,0-1-1.84,1.54,1.54,0,0,0-1.85,1.05,1.34,1.34,0,0,1-.73.73,1.52,1.52,0,0,0,.36,2.75,2.18,2.18,0,0,0,2.68-1.69,10.28,10.28,0,0,0-.41-3.68,51.64,51.64,0,0,0-2-7.31l-2.5,1.46A19.42,19.42,0,0,1,113,49.55,18.5,18.5,0,0,1,114,52.34c.07.24.14.49.2.74s0,.19.07.29.07.21.12-.07l.08-.09a1.92,1.92,0,0,1-.31.18l-.41.18a7.84,7.84,0,0,0-4.85,8.9c.45,1.88,3.34,1.08,2.89-.8Z" transform="translate(-25.3 -25.01)"/><path class="cls-5" d="M100.36,57.33a4.36,4.36,0,0,1,1-.27,3,3,0,0,1,1.21.14,2.89,2.89,0,0,1,1.82,1.41.9.9,0,0,1,0,.51,6.23,6.23,0,0,0-.07.86,4,4,0,0,0,.57,1.77c.23.4.53.75.79,1.12a4.12,4.12,0,0,1,.39.63c-.07-.14,0-.06,0,0,.1.38,0-.25,0,.16l3-.4a2.6,2.6,0,0,1,.09-1.07,10.45,10.45,0,0,0,.21-1.67c0-.92-.22-1.83-.28-2.75a12.23,12.23,0,0,1,.94-5.51c.5-1.21-1.18-2.39-2.21-1.69a8.76,8.76,0,0,0-2.07,2.22,3.71,3.71,0,0,1-.7.73c.07-.05-.45.24-.31.16-.19.05-.23.06-.12,0l-.13,0c-1.85-.56-2.64,2.34-.79,2.89a3.8,3.8,0,0,0,3.68-1.1c.74-.7,1.19-1.78,2-2.3l-2.2-1.7a14.2,14.2,0,0,0-1,6.31,22.61,22.61,0,0,1,.27,3,10.88,10.88,0,0,0-.18,3.32c.37,1.68,2.93,1.27,2.94-.4,0-1.45-.92-2.31-1.6-3.46,0,0-.18-.36-.12-.21s-.07-.41,0-.18,0-.29,0-.34.06-.39.07-.59a3.76,3.76,0,0,0-.79-2.34,6.3,6.3,0,0,0-7.83-1.84,1.51,1.51,0,0,0-.54,2,1.54,1.54,0,0,0,2,.54Z" transform="translate(-25.3 -25.01)"/><path class="cls-5" d="M99.73,50.53c-1.85,1-2,2.93-2.42,4.77-.4,1.62-1.93,2.67-2.89,4A2.48,2.48,0,0,0,94,61.93a2.24,2.24,0,0,0,.83.87,2.19,2.19,0,0,0,.62.29c.29,0,.16.21.07-.12s-.19-.19-.48,0-.87.54-1.3.8c-.91.53-1.85,1-2.8,1.47-1.31.62-.71,2.95.76,2.79l.17,0-.75-.2-.16-.15-.21-.76c0,.4-.37,1-.36,1.49a2.09,2.09,0,0,0,1,1.77c1.25.73,2.75-.18,3.31-1.35a3.27,3.27,0,0,0-.53-3.59,4,4,0,0,0-3.67-1.07c-1.48.23-1.39,2.6,0,2.9a6.18,6.18,0,0,0,5.1-1.47c1.2-.91,2.41-2.26,4-2.06a1.5,1.5,0,0,0,1.5-1.5,1.54,1.54,0,0,0-1.5-1.5,6.27,6.27,0,0,0-4.45,1.58c-1,.79-2.46,2.36-3.9,2.05v2.9a1,1,0,0,1,.68.19c.08,0,.08.24,0,.22v0c0,.19.18.17.52-.06l.67.38c.23.2-.1,1,.24.51a2.45,2.45,0,0,0,.17-2,1.93,1.93,0,0,0-1.92-1.29l.75,2.8c1-.46,1.89-.94,2.8-1.47a8.18,8.18,0,0,0,2.5-1.85,2.81,2.81,0,0,0,.44-2.77,2.34,2.34,0,0,0-.94-1.12,2.37,2.37,0,0,0-.62-.3c-.42-.11,0-.16.08.21v.8c.12-.59.88-1.19,1.28-1.62a11.15,11.15,0,0,0,1.58-2,7.47,7.47,0,0,0,.84-2.57c.13-.7.18-1.66.87-2.05,1.68-.94.17-3.54-1.52-2.59Z" transform="translate(-25.3 -25.01)"/><path class="cls-5" d="M104.82,58.38a1.88,1.88,0,0,0-.67.28,2.43,2.43,0,0,0-.75.78,2.55,2.55,0,0,0-.3,1.05,1.28,1.28,0,0,0,0,.19,1.74,1.74,0,0,0,.1.56l2.2-1.69-.11-.08.3.24a1.2,1.2,0,0,1-.22-.23l.23.31a2.08,2.08,0,0,1-.2-.36l.15.36c-.25-.62-.21-1.31-.46-1.93a3.29,3.29,0,0,0-.86-1.34,2.32,2.32,0,0,0-1.75-.65,1.17,1.17,0,0,0-.58.13,1.14,1.14,0,0,0-.48.31,1.56,1.56,0,0,0-.44,1.06,1.54,1.54,0,0,0,.44,1.06,1.44,1.44,0,0,0,1.06.44h.26l-.4,0,.19,0-.36-.15a1.07,1.07,0,0,1,.21.13l-.3-.24a1.88,1.88,0,0,1,.24.25l-.23-.3a2.09,2.09,0,0,1,.25.44l-.15-.36a9.43,9.43,0,0,1,.33,1.49,3.11,3.11,0,0,0,1.37,2,1.5,1.5,0,0,0,1.66-.12,1.39,1.39,0,0,0,.47-.6,1.41,1.41,0,0,0,.07-1,1.09,1.09,0,0,1,0-.17l.06.4a.74.74,0,0,1,0-.21l-.06.4a.84.84,0,0,1,0-.17l-.15.36a1.14,1.14,0,0,1,.1-.19l-.23.3A.54.54,0,0,1,106,61l-.3.23.14-.09-.36.15.17,0a1.5,1.5,0,0,0,1-1.85,1.5,1.5,0,0,0-.69-.89l-.36-.15a1.36,1.36,0,0,0-.8,0Z" transform="translate(-25.3 -25.01)"/><path class="cls-5" d="M113.08,55.39A3.51,3.51,0,0,0,112,56.57a2.09,2.09,0,0,0,0,2.07c.67,1.14,2.16,1.1,3.29.87a6.33,6.33,0,0,0,1.32-.48,3.68,3.68,0,0,0,1.09-.78,2.2,2.2,0,0,0,.55-2.07,1.93,1.93,0,0,0-1.87-1.4,1.5,1.5,0,0,0-1.18.59,1.41,1.41,0,0,0-.27,1.31c.47,1.11.88,2.25,1.24,3.41a1.5,1.5,0,1,0,2.89-.8,33.82,33.82,0,0,0-1.24-3.41l-1.44,1.9h.1l-.4-.06.09,0-.35-.16,0,0-.31-.24.11.11-.23-.3a.41.41,0,0,1,0,.09l-.15-.36a.75.75,0,0,1,0,.16l-.06-.4a.34.34,0,0,1,0,.1l0-.39a.55.55,0,0,1,0,.17l.16-.36-.1.17.23-.31a1.31,1.31,0,0,1-.23.24l.31-.24a3.6,3.6,0,0,1-.81.46l.36-.15a4.29,4.29,0,0,1-1,.28l.4,0a3.93,3.93,0,0,1-.84,0l.4,0a.86.86,0,0,1-.23-.06l.35.15-.15-.09.31.23-.08-.08.23.3a.41.41,0,0,1,0-.09l.15.35a.29.29,0,0,1,0-.09l.05.39a.38.38,0,0,1,0-.15l-.05.4a.75.75,0,0,1,0-.16l-.15.36a1.4,1.4,0,0,1,.16-.26l-.24.3a3.06,3.06,0,0,1,.36-.36l-.3.24.1-.08a1.62,1.62,0,0,0,.69-.89,1.5,1.5,0,0,0-1.05-1.85,1.52,1.52,0,0,0-1.16.15Z" transform="translate(-25.3 -25.01)"/><path class="cls-5" d="M107,39.67a8.29,8.29,0,0,1-1.6.45l.4,0a4.22,4.22,0,0,1-.87,0l.4.05a3.29,3.29,0,0,1-.43-.09c-.29-.09.1.05.1.05l-.2-.11-.1-.06c-.1-.06,0,0,.15.12,0,0-.1-.09-.15-.14-.19-.21,0,.1.08.11s-.1-.15-.12-.17A4.44,4.44,0,0,0,104,39a2.33,2.33,0,0,0-.51-.38,2.5,2.5,0,0,0-1-.28,1.53,1.53,0,0,0-1.44,1.9l.64,2.07,2.21-1.7-.12-.06c-.12,0,.28.22.18.14s.23.35.13.17-.1-.22,0,0,0,0,0-.07a1.51,1.51,0,0,1,0-.28l0,.39c-.13-1-.12-2.09-1-2.78a1.63,1.63,0,0,0-1.06-.44,1.54,1.54,0,0,0-1.06.44,1.51,1.51,0,0,0,0,2.12.6.6,0,0,0,.08.08c.15.11-.15-.25-.11-.16a.26.26,0,0,0,0,.09c.07.09-.13-.38-.07-.18s.08.34.11.51l-.06-.4a10.06,10.06,0,0,0,.2,1.46,2.34,2.34,0,0,0,1.17,1.52,1.53,1.53,0,0,0,1.67-.11,1.51,1.51,0,0,0,.54-1.58l-.65-2.06-1.45,1.89h.07l-.4-.05c.19,0-.17-.09-.18-.09.19.1-.21-.21-.13-.11l.09.09c.19.18-.07-.12-.08-.12s.12.18.15.23l.18.25A3.63,3.63,0,0,0,104,42.91a5.71,5.71,0,0,0,3.77-.35,1.5,1.5,0,0,0-.8-2.89Z" transform="translate(-25.3 -25.01)"/><path class="cls-5" d="M99.2,33.85l-4.36-1.16a1.5,1.5,0,0,0-1.46,2.5,3.33,3.33,0,0,1,.39.36,1.63,1.63,0,0,1,.17.2c-.18-.22,0,0,0,.06a5.2,5.2,0,0,1,.25.46s.13.28.07.13,0,.1,0,.13a12.55,12.55,0,0,1,.52,2.26,8.59,8.59,0,0,1,0,2.32,3.1,3.1,0,0,0,.93,3.07A1.5,1.5,0,1,0,98,42.05l-.2-.17c.17.14,0,.06,0,0l0,.12,0-.13c0,.17,0,.19,0,.06s0-.11,0-.05,0-.18,0-.21l.06-.45a5.4,5.4,0,0,0,.07-.8,15.59,15.59,0,0,0-.32-3,7.06,7.06,0,0,0-2.16-4.38L94,35.58l4.37,1.16a1.5,1.5,0,0,0,.79-2.89Z" transform="translate(-25.3 -25.01)"/><path class="cls-5" d="M95.29,41.59l-1,.52A1.52,1.52,0,0,0,94,44.47a2.71,2.71,0,0,0,2.25.93,1.93,1.93,0,0,0,1.33-.77s.26-.38.28-.38-.26.29-.11.14a.72.72,0,0,1-.31.21c-.15,0-.17.06-.07,0l-.4.06a.24.24,0,0,1,.12,0l-.4-.05.12,0c-.25-.11-.31-.14-.18-.07l.19.12c.14.1.28.21.43.3a2.47,2.47,0,0,0,1.51.43,2.77,2.77,0,0,0,1.7-.74A2.57,2.57,0,0,0,101.2,43a1.55,1.55,0,0,0-1.1-1.45,4.71,4.71,0,0,1-.52-.09l-.14-.05c-.15,0-.1,0,.15.08a.72.72,0,0,0-.19-.11c.21.17.25.21.14.11s-.07-.07.1.14c-.15-.23.08.33,0,.05l-.15-.63-.59-2.8a1.5,1.5,0,0,0-1.84-1.05,1.52,1.52,0,0,0-1,1.84c.22,1.06.43,2.13.67,3.19A2.75,2.75,0,0,0,97.89,44a3.92,3.92,0,0,0,1.41.47L98.2,43v.07l.06-.4,0,.12s.18-.36.07-.18.12-.15.12-.15-.11.11-.11.12.27-.22.14-.12-.21.1,0,0,0,0-.13,0l.39,0h-.25l.4,0-.19,0c.24.11.31.14.2.08l-.09-.06a3.37,3.37,0,0,1-.31-.21,3.13,3.13,0,0,0-1-.5,2,2,0,0,0-1.86.49,3.19,3.19,0,0,0-.43.54c-.09.15-.18.16.07-.07l.19-.15c.26-.09.31-.12.16-.09l.4,0H95.9l.39,0-.1,0q-.16,0,.18.09a.59.59,0,0,0-.17-.1c-.14-.07.27.25.08.06l-.17-.16L95.8,44.7l1-.52a1.51,1.51,0,0,0,.53-2,1.54,1.54,0,0,0-2-.54Z" transform="translate(-25.3 -25.01)"/><path class="cls-5" d="M50.4,106.14a2.39,2.39,0,0,0,3.09-2.42l-2.56,1.06a3.54,3.54,0,0,0,3.24,1.51,2.46,2.46,0,0,0,2.09-2.45L53.7,104.9a4,4,0,0,0,3,.87c.33,0,1.19-.24,1.49,0s.54,1,.82,1.28a3.68,3.68,0,0,0,3.21,1c.32,0,2.25-.28,1.42.45s-.24,2.73,1.06,2.56a15.29,15.29,0,0,1,5.56.21c.47.12.94.25,1.4.4.16.06,1.06.52,1.18.45s0-.89-.2-.82-.29.37-.38.51a3.11,3.11,0,0,0-.43,1,4.12,4.12,0,0,0,.13,2c.14.49.65,1.3.56,1.82s-.55.64-.87.87a4.77,4.77,0,0,0-1.41,1.42,3.14,3.14,0,0,0-.29,2.19,1.89,1.89,0,0,0,.14.58l.07.25.53-.44a6.63,6.63,0,0,0-1.44-.42,4.64,4.64,0,0,1-1.33-.39c.16.14-.08-.37-.13-.49a5.48,5.48,0,0,0-1.4-2,28.86,28.86,0,0,0-4.59-3.06,4.37,4.37,0,0,0-2.26-.74,5.21,5.21,0,0,0-1.11.1c-.15,0-.31,0-.46,0,.29,0,0,.41.15,0a3,3,0,0,0-.85-2.4,2.56,2.56,0,0,0-1.07-.59,6.59,6.59,0,0,1-1.19-.23c-1.41-.76-.6-3.8-.72-5.06l-2.79.76a3.55,3.55,0,0,0,2.53,1.79c1.34.26,2.74-.43,4-.1a8.59,8.59,0,0,1,2.41,1.56,4.86,4.86,0,0,0,3,1,1.52,1.52,0,0,0,1.06-2.56c-2.24-2.13-5.77-4.19-9-4-2,.11-2.36,2.41-1.94,4,.47,1.78,1.77,3.31,2.8,4.8s1.78,3.22,3.54,3.56c1.33.26,2.41-.45,3.62.39,2.05,1.41,3.3,3.77,5.94,4.26a1.55,1.55,0,0,0,1.69-.69,13.36,13.36,0,0,0,1.1-9.41,1.51,1.51,0,0,0-1.84-1c-2,.56-4.33-.49-6.28-1.07l-6.6-1.94a1.51,1.51,0,0,0-1.84,1c-.46,2.14,1.24,4.41,3.07,5.42s4.31.31,4.65-1.84l-1.85,1,.17.06-.89-.69c-.14-.2,0-.62-.13-.26a2.57,2.57,0,0,0-.1.78,2.22,2.22,0,0,0,.4,1.36,2.89,2.89,0,0,0,2.47,1,4.21,4.21,0,0,1,2.63.69,13.45,13.45,0,0,1,2.5,2.5c1.06,1.26,2.75-.14,2.51-1.46-.77-4.24-5-6-8.59-7.29-1.51-.52-2.38,1.46-1.46,2.5,1.27,1.44,3.29,3.07,5.26,3.39.3.05.52,0,.14.3a9.65,9.65,0,0,1-.84.69,6.4,6.4,0,0,0-2.11,2,1.53,1.53,0,0,0,.23,1.82,12.06,12.06,0,0,0,2.91,2.1c1.71.87,3.23-1.72,1.51-2.59a9.06,9.06,0,0,1-2.3-1.63l.24,1.81c.56-1,1.82-1.33,2.54-2.17a3.6,3.6,0,0,0,.86-3.31c-.46-1.46-1.84-1.68-3.08-2.18a8.86,8.86,0,0,1-3.24-2.38l-1.46,2.51c2.67.92,5.93,2.06,6.5,5.2l2.5-1.46c-1.48-1.76-3.26-3.61-5.64-4a5.12,5.12,0,0,0-1.61-.07s-.37,0-.38,0c.29.7.46.89.52.58l0-.18a2,2,0,0,0-1.29-2.55,1.5,1.5,0,0,0-1.84,1c0,.29-.64-.23-.82-.4s-1.22-1.12-1.12-1.6l-1.84,1,7.48,2.21c2.28.67,4.6,1.46,7,.8l-1.85-1a10.1,10.1,0,0,1-.8,7.1l1.69-.69c-1.79-.33-2.89-2-4.2-3.16a7,7,0,0,0-2.36-1.46,4.8,4.8,0,0,0-1.36-.24c-.53,0-1.28.32-1.78.18s-.86-1.07-1.12-1.44l-1.21-1.77c-.44-.63-.89-1.24-1.27-1.91a4.33,4.33,0,0,1-.44-.92,5.93,5.93,0,0,1-.1-.92c.18.15-1.33.44-.12.64a9.18,9.18,0,0,1,.91.19,11.14,11.14,0,0,1,1.77.59,11.67,11.67,0,0,1,3.4,2.28l1.06-2.56c-1.44.07-2.7-1.66-4-2.2a5.64,5.64,0,0,0-3-.27c-.64.09-2,.47-2.34-.26-.67-1.27-2.94-.74-2.8.76.21,2.12-.43,4.27.74,6.22a3.89,3.89,0,0,0,2,1.68c.33.11,1,0,1.24.23-.24-.17-.06-.27-.14.15a2.38,2.38,0,0,0,.12.84,2.62,2.62,0,0,0,1.6,1.93c.94.37,1.77-.07,2.7.07s2,1.13,2.83,1.64a6.65,6.65,0,0,1,2.53,2c.47.87.57,1.67,1.5,2.23a13.3,13.3,0,0,0,3.29,1,2.69,2.69,0,0,0,2.68-.38,2.88,2.88,0,0,0,.7-2.68c0-.28-.29-.68-.19-.92s.55-.44.72-.56a4.6,4.6,0,0,0,1.66-1.84,3.82,3.82,0,0,0,.07-2.5c-.14-.55-.72-1.47-.57-2s.66-.83.81-1.33a2.07,2.07,0,0,0-.08-1.47c-.51-1.12-2-1.51-3-1.87a17.26,17.26,0,0,0-7.75-.72l1.06,2.56a3.3,3.3,0,0,0,.69-3.95c-.8-1.5-2.36-1.79-3.92-1.65-.7.06-1.16.28-1.52-.36a3.47,3.47,0,0,0-1.6-1.61,4.3,4.3,0,0,0-2-.28c-.34,0-1.39.25-1.62.06a1.52,1.52,0,0,0-2.56,1.06c0-.29.36-.42.33-.62s-.49-.5-.54-.56a1.52,1.52,0,0,0-2.56,1.06l.71-.48c-1.85-.56-2.64,2.33-.8,2.9Z" transform="translate(-25.3 -25.01)"/><path class="cls-5" d="M53.54,96.74a.16.16,0,0,0,0-.07,3,3,0,0,0-.27-.35l0,0a3.17,3.17,0,0,0-.36-.28,3.11,3.11,0,0,0-.47-.21l-.15,0a2.33,2.33,0,0,0-.53-.06,1.88,1.88,0,0,0-.53.07,2.09,2.09,0,0,0-.9.52,1.08,1.08,0,0,0-.31.48,1.36,1.36,0,0,0,0,1.16,1.14,1.14,0,0,0,.31.48l.3.23a1.48,1.48,0,0,0,.76.21l.4,0a1.59,1.59,0,0,0,.66-.39l0,0-.3.23a.41.41,0,0,1,.11-.07l-.36.16a.42.42,0,0,1,.15,0l-.4.05a.48.48,0,0,1,.17,0l-.4-.05.18,0-.36-.15a.57.57,0,0,1,.13.08l-.3-.23a.28.28,0,0,1,.1.09l-.24-.31.06.1a1.12,1.12,0,0,0,.39.42,1.14,1.14,0,0,0,.51.27,1.18,1.18,0,0,0,.59,0,1.12,1.12,0,0,0,.56-.18l.31-.24a1.45,1.45,0,0,0,.38-.66l.05-.4a1.41,1.41,0,0,0-.2-.75Z" transform="translate(-25.3 -25.01)"/><path class="cls-5" d="M44.91,96.91l.35,0-.4-.05a3.25,3.25,0,0,1,.74.2l-.36-.16a3.07,3.07,0,0,1,.66.38l-.3-.23a3.46,3.46,0,0,1,.6.61l-.23-.3a4.89,4.89,0,0,0,1.39,1.44,2.82,2.82,0,0,0,1.2.35,2.52,2.52,0,0,0,1.26-.3l-.36.15.13,0-.4,0h.06l-.4-.06,0,0-.66-.39,0,0-.24-.3,0,0L47.91,98l0,0-.06-.4v0l0-.4v0l.38-.67,0,0a1.5,1.5,0,0,0,2.12,2.12,1.62,1.62,0,0,0,0-2.32A1.71,1.71,0,0,0,49.19,96a2.7,2.7,0,0,0-1,.3l.36-.15-.19,0,.39-.06a.6.6,0,0,1-.19,0l.4.06a1.78,1.78,0,0,1-.33-.09l.36.15a1.75,1.75,0,0,1-.29-.18l.3.24a3,3,0,0,1-.45-.49l.23.31a8.45,8.45,0,0,0-.75-1,4.35,4.35,0,0,0-.9-.7,4.57,4.57,0,0,0-2.22-.61,1.51,1.51,0,0,0-1.5,1.5,1.53,1.53,0,0,0,1.5,1.5Z" transform="translate(-25.3 -25.01)"/><path class="cls-5" d="M63.44,29.91l-3.1.41,1.19,8.84a12.64,12.64,0,0,0,5.19-2.22,5.08,5.08,0,0,0,1.85-2.15,4.35,4.35,0,0,0,.22-2.93,4.59,4.59,0,0,0-4.34-3.3l-1.5,0,1.2,8.84c1.33-.29,2.67-.66,4-.86l-1.2.17a2.53,2.53,0,0,1,.55,0l-1.2-.16a1,1,0,0,1,.34.11l-1.07-.46a1,1,0,0,1,.27.19L65,35.71c1,.83,1.86,1.73,2.74,2.62l-.7-.91.08.1-.46-1.08,0,.12-.16-1.2v.13l.17-1.2,0,.12.45-1.07a5.2,5.2,0,0,0-.64,3.95A9.45,9.45,0,0,0,67.22,39L66.77,38l0,.11-.16-1.2,0,.12.61-2.27-.06.1.71-.91-.09.09.91-.71a8.63,8.63,0,0,1-1.59.84l1.08-.45a10.43,10.43,0,0,1-2.33.63l1.2-.17c-.31,0-.62.07-.93.08a4.53,4.53,0,0,0-4.42,3.9A4.29,4.29,0,0,0,62.25,41l.7.92a4.48,4.48,0,0,0,2,1.15l.14.06L64,42.67a3.3,3.3,0,0,1,.51.31l-.91-.7a2.85,2.85,0,0,1,.43.42l-.7-.91a3.18,3.18,0,0,1,.38.64l-.45-1.08a3.83,3.83,0,0,1,.16.58l.46-3.47-.05.09,1.61-1.62-.08,0,2.27-.61h-.11l1.19.16-.1,0,2,1.15-.08-.07.7.91-.06-.12.46,1.07,0-.13.16,1.19a7.31,7.31,0,0,0-2-5.14,6.9,6.9,0,0,0-5.12-2.11v9a7.49,7.49,0,0,1,1.57,0L65,42.11c.26,0,.51.09.77.15a4.72,4.72,0,0,0,3.47-.45,4.65,4.65,0,0,0,2.07-2.69,4.57,4.57,0,0,0-.46-3.47,4.62,4.62,0,0,0-2.69-2.07,10.76,10.76,0,0,0-3.53-.33,4.82,4.82,0,0,0-3.18,1.32,4.57,4.57,0,0,0-1.32,3.18,4.51,4.51,0,0,0,4.5,4.5h.45l-1.2-.16a2.65,2.65,0,0,1,.57.15l-1.07-.45a3.14,3.14,0,0,1,.64.37l-.91-.7a3.42,3.42,0,0,1,.43.42L62.82,41a2.77,2.77,0,0,1,.38.64l-.45-1.07a2.79,2.79,0,0,1,.14.57l-.16-1.2a9.48,9.48,0,0,0,.2,1.92A4.77,4.77,0,0,0,65.68,45a4.67,4.67,0,0,0,6.58-4.22,6.5,6.5,0,0,0-1.16-3.49,7.58,7.58,0,0,0-2-2,8.89,8.89,0,0,0-1.73-.83l-1.2,8.84a15.16,15.16,0,0,0,6-1.5A6.38,6.38,0,0,0,75,39.31a5,5,0,0,0,.47-3.74,7.5,7.5,0,0,0-.78-1.63L75.12,35l0-.12v2.39a.72.72,0,0,1,.07-.25l-.45,1.08a5.24,5.24,0,0,0,.57-4.07,5.94,5.94,0,0,0-1.77-2.61A34,34,0,0,0,70.86,29a5.71,5.71,0,0,0-3.52-1.28,11,11,0,0,0-2.42.34l-3.16.69a4.54,4.54,0,0,0-2.69,2.07,4.63,4.63,0,0,0-.53,2.87A4.47,4.47,0,0,0,63,37.59l1.5,0-2.27-8.39a10,10,0,0,1-2,1.16l1.07-.45a10.56,10.56,0,0,1-2.08.6,4.47,4.47,0,0,0-2.69,2.07,4.61,4.61,0,0,0-.53,2.87A4.2,4.2,0,0,0,57.16,38a4.29,4.29,0,0,0,3.18,1.32l3.1-.41a3.22,3.22,0,0,0,1.73-.39,3.3,3.3,0,0,0,1.45-.93,4.57,4.57,0,0,0,1.32-3.18,4.51,4.51,0,0,0-1.32-3.18,4.29,4.29,0,0,0-3.18-1.32Z" transform="translate(-25.3 -25.01)"/><path class="cls-5" d="M64.24,45.15c.07.11.08.1,0,0a.56.56,0,0,1-.06-.31v.09a.51.51,0,0,1,.14-.42.64.64,0,0,1,.47-.39l.21,0c-.16,0-.12,0,.12,0V47a.9.9,0,0,1-1-.33c-.07-.2-.08-.21,0,0a2,2,0,0,1,0,.24A4.27,4.27,0,0,0,64.54,48a4.83,4.83,0,0,0,1.18,1.52c1,.93,2.08,1.8,3.12,2.7A1.5,1.5,0,1,0,71,50.1l-.29-.36-.15-.18c.11.14.12.16.06.07-.17-.24-.34-.47-.49-.72a3,3,0,0,1-.37-.71c.09.35,0,0,0-.07a3.52,3.52,0,0,1-.13-.43c0-.07,0-.14,0-.2s0-.14,0,0h0a1.48,1.48,0,0,1,0-.21,2.81,2.81,0,0,1,0-.41v-.1c0-.17,0-.14,0,.09a1.73,1.73,0,0,1,.09-.4l.06-.19-.07.17c0-.06.16-.3.19-.35a1.63,1.63,0,0,1,.11-.17c-.13.17-.14.19,0,.07a1.5,1.5,0,0,0-2.12-2.12,5,5,0,0,0-1.1,4.42,9.05,9.05,0,0,0,2.21,3.93L71,50.1l-1.79-1.54c-.55-.48-1.14-.93-1.65-1.46a1.07,1.07,0,0,0-.14-.16s-.2-.2,0-.06-.16-.3-.16-.3.1.3,0,0c0-.08,0-.16,0-.24a5.07,5.07,0,0,0-.09-.54,2.24,2.24,0,0,0-2.68-1.72,1.52,1.52,0,0,0-1.11,1.44A1.55,1.55,0,0,0,64.37,47a2.26,2.26,0,0,0,2.41-.81,2.19,2.19,0,0,0,.06-2.54,1.63,1.63,0,0,0-.9-.69,1.5,1.5,0,0,0-1.7,2.2Z" transform="translate(-25.3 -25.01)"/><path class="cls-5" d="M50.2,59.94c.17.08.26.89.39,1.28A3.24,3.24,0,0,0,51.82,63c1.58,1,3.33,0,4.54-1.07L53.8,60.83a7.67,7.67,0,0,0,3.68,6.62V64.86q-5.28,2.49-10.74,4.6l1.85,1.84a2.7,2.7,0,0,0-1.43-3.21l-.75,2.79c2.14-.2,3.38-1.72,4.24-3.57a24.3,24.3,0,0,0,2-6.72H49.75a7.5,7.5,0,0,0,1.66,3.23c.16.18,1.06,1.24,1.33,1.22l.24-.91a1.59,1.59,0,0,1-.38,0,3,3,0,0,0-.89,0A2.6,2.6,0,0,0,50.47,69a1.52,1.52,0,0,0,2.05-.54l2-3.17c.86-1.35-.8-2.69-2.06-2.06a21,21,0,0,0-7.19,5.92A49.22,49.22,0,0,0,40.71,77a36.6,36.6,0,0,1-5,7.45c-2.12,2.42-3.24,5.36-2.06,8.52.49,1.3,2.52,1.55,2.9,0a10,10,0,0,1,1.8-3.76c1.17-1.54-1.43-3-2.59-1.51a12.15,12.15,0,0,0-2.11,4.48h2.9a4.87,4.87,0,0,1,0-3.87,17.87,17.87,0,0,1,2.63-3.32,37.39,37.39,0,0,0,4.25-6.84,49.91,49.91,0,0,1,3.94-6.84A18.35,18.35,0,0,1,54,65.78L52,63.73l-2,3.17,2-.53c-.19.61,0,.87.44.77a3.64,3.64,0,0,0,.66,0,3.48,3.48,0,0,0,1.34-.37,2.3,2.3,0,0,0,1.24-2.23c-.11-1.09-.88-1.63-1.63-2.32a4.63,4.63,0,0,1-1.39-2.43c-.33-1.35-2.68-1.51-2.89,0a23.28,23.28,0,0,1-1.17,4.72c-.31.85-1,3.26-2.17,3.37-1.32.12-2.25,2.11-.76,2.8l0-.17c-.25,1,.73,2.27,1.85,1.84q5.82-2.23,11.46-4.9a1.52,1.52,0,0,0,0-2.59,4.6,4.6,0,0,1-2.2-4,1.52,1.52,0,0,0-2.56-1.06c-.16.15-.41.27-.55.43s-.27.19-.18.28c-.19-.18-.22-.87-.29-1.12a3,3,0,0,0-1.51-2c-1.74-.82-3.26,1.77-1.51,2.59Z" transform="translate(-25.3 -25.01)"/><path class="cls-5" d="M33,67.73a6.75,6.75,0,0,1,.33-4.09,14.91,14.91,0,0,1,1-1.77,6.59,6.59,0,0,0,.8-3.07c0-.56,0-.47.43-.91a13.49,13.49,0,0,0,1.66-2,5.46,5.46,0,0,0,.2-5.71L34,54.55a16,16,0,0,0,7.9.43L39,50a49.83,49.83,0,0,0-4.18,4c-1.32,1.45-3.09,3.15-3.67,5.07-.71,2.39.85,4.07,2.24,5.75a41.23,41.23,0,0,1,3.3,4.87A7.68,7.68,0,0,1,38,71.83s.09-.07.1,0c0,.29-.57,1-.73,1.22-1.17,1.72-2.37,3.41-3.56,5.12a27.75,27.75,0,0,0-3.27,5.14,6.39,6.39,0,0,0-.39,3.56c.11.68.47,1.46.3,1.93l5.89.8a10.23,10.23,0,0,0-1.87-5.45,8,8,0,0,0-1-1.17c.33,0,.17.86.29,1-.1-.11.5-1.12.58-1.43a5,5,0,0,0,.14-1.93c-.18-1.79-1.4-3-2-4.64a7.3,7.3,0,0,1-.18-4.41c.84-3.19-3.92-5.44-5.48-2.31-1.65,3.29-.57,6.34.18,9.7a5.91,5.91,0,0,1,.18,1.77,9,9,0,0,0,0,2.28,3.65,3.65,0,0,0,5.47,2.19c1.66-1,2.34-3,3.16-4.61l2.67-5.31c1-2.06,2.3-4.12,1.17-6.43C39,67.48,38.12,66.62,38.1,65a3.06,3.06,0,0,0-2.2-2.89,3,3,0,0,0-3.39,1.38A30.4,30.4,0,0,0,29.8,76.27c.06,3.86,6,3.87,6,0A58.34,58.34,0,0,1,37,64.34c.86-4.06,2.12-8.1-.45-11.85a3,3,0,0,0-5.48.72c-.5,1.74-1.8,3.17-2.71,4.73a13.13,13.13,0,0,0-1.83,6.37,7.51,7.51,0,0,0,.63,3.54A6,6,0,0,0,30,70.24c2.25,1.17,4.75,2.47,7,.42,0,0,1.58-2.12,1.5-2.14A.82.82,0,0,1,38,69c-.25,0-.18,0,.21,0-.06,0-.11,0-.13,0s0-.06.35.19A14.49,14.49,0,0,1,40.19,71c.55.72.44.8.46,1.61a4.21,4.21,0,0,0,4.63,4.21c2.2-.14,4.45-1.26,6.51-2A3,3,0,0,0,50.19,69c-1.74.26-3.18,1.85-4.36,3.06a39.67,39.67,0,0,0-3.36,4.07c-1.91,2.59-4.16,6.32-1.9,9.4,1.31,1.79,3.93,2.08,5.18,0a6.32,6.32,0,0,0,.86-2.88c.22-2.51-3.5-4.08-5.12-2.12A12.13,12.13,0,0,1,36.92,84a3,3,0,0,0-1.43,3,3,3,0,0,0,2.15,2.49,6.06,6.06,0,0,0,5.28-.71A3.07,3.07,0,0,0,44,84.69a3,3,0,0,0-4.11-1.08c-.27.18-.19.27-.54.26.24,0,.32,0-.12-.15L40,89.2a16,16,0,0,0,5.78-4.39l-5.12-2.12a.33.33,0,0,0,0-.14h5.18c-.4-.55-.1-.18-.12,0a2.58,2.58,0,0,1,.4-1,22.08,22.08,0,0,1,1.87-2.74,28.25,28.25,0,0,1,2-2.35c.39-.42.8-.82,1.22-1.21.21-.2.42-.39.64-.57a.11.11,0,0,1,0,.11L50.19,69l-2.83,1a15.35,15.35,0,0,0-2.56.84c.94-.57,1.63,2.89,1.86,1.39a4.82,4.82,0,0,0-.1-1.52,7,7,0,0,0-1-2.45c-2-3.11-5.62-6.31-9.53-5a5.23,5.23,0,0,0-2.58,2c-.19.26-.35.52-.52.79-1,1.65,1.58-.62,1.62-.19a13.92,13.92,0,0,0-2.44-1.28c-.41-.24-.26,0,.42.62.08,0,.08-.07,0-.22a6.53,6.53,0,0,0,0-1.17,9.31,9.31,0,0,1,1.85-4.16,17.54,17.54,0,0,0,2.46-4.84l-5.48.72a4.48,4.48,0,0,1,.64,3.8c-.39,1.78-.85,3.53-1.17,5.33A67.68,67.68,0,0,0,29.8,76.27h6a23.44,23.44,0,0,1,1.89-9.74L32.1,65a10.9,10.9,0,0,0,1.11,4.76,17.16,17.16,0,0,0,1.09,1.75l-.11-1-.34.67-.55,1.1-2.11,4.2-1.11,2.22c-.19.36-.4.72-.56,1.1-.39.94-.14-.09.95,0l1.52.41L31.75,80l1.08,1.08c.09,1.27.16,1.53.23.79a7.91,7.91,0,0,0,0-2.62,22.23,22.23,0,0,0-.59-3,21.87,21.87,0,0,1-.62-2.54A3.22,3.22,0,0,1,32,72.29L26.52,70a13.75,13.75,0,0,0-.22,6,11.6,11.6,0,0,0,2.24,5.3c.13.15.15.2.05.15-.19-.3-.19-.47,0-.49.12.16-.52,1.16-.6,1.41a4.66,4.66,0,0,0,.2,3.33c.68,1.43,2,2.34,2.12,3.91a3,3,0,0,0,5.9.8,6,6,0,0,0,.09-3.31A5.1,5.1,0,0,1,36,85.61c.1-.72,1-1.62,1.44-2.23L39.09,81c1.18-1.7,2.4-3.37,3.53-5.09A6.64,6.64,0,0,0,43.67,70a25.46,25.46,0,0,0-2.89-5.13,42.41,42.41,0,0,0-3.58-4.85c-.45-.52-.32-.64-.37.3-.06,1.22.15.37.5-.07.56-.7,1.14-1.38,1.75-2a48.23,48.23,0,0,1,4.17-4,3,3,0,0,0,.47-3.63,3.11,3.11,0,0,0-3.39-1.38,9.51,9.51,0,0,1-4.7-.43c-2.5-.82-4.71,2.22-3.39,4.4a.9.9,0,0,1-.06-.6.06.06,0,0,1,0-.07c.1,0-.41.61-.41.6-.5.64-1.08,1.19-1.56,1.86a6,6,0,0,0-1,2.16,9.86,9.86,0,0,1-.34,2,19.34,19.34,0,0,0-1.88,4.47,13.86,13.86,0,0,0,.11,5.7A3,3,0,0,0,33,67.73Z" transform="translate(-25.3 -25.01)"/><path class="cls-5" d="M38.11,97.31c-.11.09-.19.07,0,0l.19,0c-.12,0-.08,0,.13,0,0,0-.23-.07,0,0s0,0,0,0,.16.17,0,0a.23.23,0,0,1-.07-.07c-.06-.06,0,0,.06.1,0,0-.07-.11-.09-.15s0,0,0,.06a.75.75,0,0,0-.08-.24l-.06-.26a1.55,1.55,0,0,1,0-.21c0-.14,0-.14,0,0-.07-.4-.09-.81-.15-1.21a3.27,3.27,0,0,0-2.25-2.9,1.13,1.13,0,0,0-.6,2.17c.05,0,.15.06.19,0-.17-.08-.2-.09-.1,0l.06,0,.08.05-.1-.08s.11.1.14.13.12.21,0,0a1.63,1.63,0,0,0,.11.17l.09.17,0,.06c.05.11,0,.09,0-.08a2.4,2.4,0,0,0,.12.38c0,.14.06.29.09.43s0,.06,0-.08c0,0,0,.08,0,.13l0,.26c0,.21,0,.42.08.63a3.39,3.39,0,0,0,.9,2.12,1.9,1.9,0,0,0,2.4.37,1.28,1.28,0,0,0,.52-.67,1.15,1.15,0,0,0-.12-.87,1.13,1.13,0,0,0-1.53-.41Z" transform="translate(-25.3 -25.01)"/><path class="cls-5" d="M54.18,52.47h0l.3,0a.62.62,0,0,1-.23-.07l.27.12-.21-.12.23.17a1,1,0,0,1-.21-.21l.17.23a1.35,1.35,0,0,1-.15-.26l.11.26a1,1,0,0,1-.08-.3l0,.3a1.13,1.13,0,0,1,0-.26l0,.3a1.05,1.05,0,0,1,.06-.24l-.11.27a.3.3,0,0,1,0-.08,1.2,1.2,0,0,0,.11-.87.78.78,0,0,0-.2-.38.86.86,0,0,0-.31-.29,1.14,1.14,0,0,0-1.54.4,2.06,2.06,0,0,0-.27,1.05,2.43,2.43,0,0,0,.29,1.06,2.37,2.37,0,0,0,.72.79,2.12,2.12,0,0,0,.48.23,1.74,1.74,0,0,0,.55.11.84.84,0,0,0,.44-.1.82.82,0,0,0,.36-.23.86.86,0,0,0,.23-.36.94.94,0,0,0,.1-.43,1.16,1.16,0,0,0-.33-.8l-.23-.18a1.16,1.16,0,0,0-.57-.15Z" transform="translate(-25.3 -25.01)"/><path class="cls-5" d="M55.78,49a1.13,1.13,0,0,0,0-2.25,1.13,1.13,0,0,0,0,2.25Z" transform="translate(-25.3 -25.01)"/><path class="cls-5" d="M52.72,44.75l-.53-.19.27.11a4.9,4.9,0,0,1-1.06-.62l.23.18a3.27,3.27,0,0,1-.35-.3,1.12,1.12,0,0,0-1.59,0,1.15,1.15,0,0,0-.33.8,1.11,1.11,0,0,0,.33.79,6.05,6.05,0,0,0,2.43,1.4A1.12,1.12,0,0,0,53,46.8a1.09,1.09,0,0,0,.52-.67,1.15,1.15,0,0,0-.11-.87,1.18,1.18,0,0,0-.67-.51Z" transform="translate(-25.3 -25.01)"/><path class="cls-5" d="M43.45,47.18a6,6,0,0,0-1,4.07,1.14,1.14,0,0,0,1.42,1.08c1.18-.36,2.26-1.42,1.53-2.72-.24-.42-.42-.42-.3-.92a17.56,17.56,0,0,0,.43-1.77,8.77,8.77,0,0,0-.39-3.77,2.77,2.77,0,0,1-.23-1.41c.1-.33.49-.48.79-.61l-.87-2.05c-.81.48-2.08,1.28-2.08,2.35a1.63,1.63,0,0,0,.25.86,3.94,3.94,0,0,1,.38.53,1.82,1.82,0,0,1,.06.87,23,23,0,0,1-.85,3.05c-.18.64-.31,1.77-.93,2.15-1.23.76-.1,2.71,1.14,2,1.59-1,1.87-3.19,2.36-4.85a10.87,10.87,0,0,0,.55-2.59,3.49,3.49,0,0,0-.18-1.24,3.16,3.16,0,0,0-.29-.62c-.08-.13-.26-.29-.28-.41v.6c-.05.17-.06.08.07,0s.19-.18.3-.27a5.42,5.42,0,0,1,.64-.42,1.15,1.15,0,0,0,.46-1.41A1.12,1.12,0,0,0,45.06,39c-1.1.46-2.16,1.07-2.4,2.35s.33,2.35.57,3.55a7.64,7.64,0,0,1-.36,3.32A3,3,0,0,0,43,50.06c0,.09.3.64.41.63l.12-.64s-.3.12-.28.11l1.43,1.09a4,4,0,0,1,.74-2.93A1.13,1.13,0,0,0,45,46.78a1.15,1.15,0,0,0-1.54.4Z" transform="translate(-25.3 -25.01)"/><path class="cls-5" d="M39.78,43.59l-1.27.5a.93.93,0,0,0-.38.2,1,1,0,0,0-.42.74.86.86,0,0,0,0,.45,1.16,1.16,0,0,0,.52.67l.26.11a1,1,0,0,0,.6,0l1.27-.5a.81.81,0,0,0,.39-.2,1,1,0,0,0,.29-.32.9.9,0,0,0,.13-.42.83.83,0,0,0,0-.44,1.15,1.15,0,0,0-.52-.68l-.27-.11a1.22,1.22,0,0,0-.6,0Z" transform="translate(-25.3 -25.01)"/><path class="cls-5" d="M39.59,48.57h0l-.23-.18h0l-.27-.12h0l-.16,0-.15,0h0a3.11,3.11,0,0,0-.32,0h0a2.52,2.52,0,0,0-.29.12h0l0,0a2.19,2.19,0,0,0-.25.2l0,0a2.35,2.35,0,0,0-.19.25l0,0a1.78,1.78,0,0,0-.12.29v0a1.92,1.92,0,0,0,0,.32v0c0,.1,0,.2,0,.31h0a1.33,1.33,0,0,0,.32.55.77.77,0,0,0,.36.23.84.84,0,0,0,.44.1.83.83,0,0,0,.43-.1.77.77,0,0,0,.36-.23l.18-.23a1.1,1.1,0,0,0,.15-.57l0-.29a1.05,1.05,0,0,0-.29-.5h0l.18.23,0,0,.11.27s0,0,0,0l0,.3v0l0,.3s0,0,0,0l-.12.27a.21.21,0,0,1,0-.06l-.18.23,0,0-.23.18.06,0-.27.12,0,0-.3,0h0l-.3,0h0l-.27-.11,0,0L38,50.15h0a.85.85,0,0,0,.37.23.88.88,0,0,0,.43.1.91.91,0,0,0,.43-.1.77.77,0,0,0,.36-.23l.18-.23a1.1,1.1,0,0,0,.15-.57l0-.3a1.07,1.07,0,0,0-.29-.49Z" transform="translate(-25.3 -25.01)"/><path class="cls-5" d="M48.42,38.18l.29.23.08.05.34.14.09,0a2.35,2.35,0,0,0,.37,0h.09l.38,0,.09,0a.91.91,0,0,0,.39-.2,1,1,0,0,0,.42-.74.82.82,0,0,0,0-.44L50.83,37a1.15,1.15,0,0,0-.41-.41l-.27-.11a1.18,1.18,0,0,0-.59,0l-.1,0,.3,0h-.18l.3,0a.61.61,0,0,1-.18,0l.27.12-.15-.09.23.17,0,0a.77.77,0,0,0-.36-.23,1,1,0,0,0-.44-.1.91.91,0,0,0-.43.1.77.77,0,0,0-.36.23l-.18.23a1.1,1.1,0,0,0-.15.57l0,.29a1.05,1.05,0,0,0,.29.5Z" transform="translate(-25.3 -25.01)"/><path class="cls-5" d="M117.63,67.07c-.73-.8-2.06-1.38-3-.47a1.81,1.81,0,0,0-.44,1.72,2.32,2.32,0,0,0,1.08,1.34c.39.25.83.44,1.24.65l1.28.66,2.64,1.35a1.13,1.13,0,0,0,1.14-1.94l-4-2-1-.49-.2-.12s-.22-.16-.1-.06,0,0,0,0,0,0,0,.06c-.05-.2,0,.17,0,0s0,.28,0,0a.72.72,0,0,1-.11.35.67.67,0,0,1-.52.25c.2,0-.2,0-.06,0s-.18-.13,0,0l.09,0c-.13-.09,0,0,.08.07l.17.17a1.12,1.12,0,0,0,1.59,0,1.14,1.14,0,0,0,0-1.59Z" transform="translate(-25.3 -25.01)"/><path class="cls-5" d="M119.43,56.82s-.1-.12-.13-.13.11.22.06.05a.71.71,0,1,0,0,.08,1.54,1.54,0,0,0,0-.17l0-.15c0-.12,0,.3,0,.08s0-.21,0-.32a14.22,14.22,0,0,0,0-1.46,3.38,3.38,0,0,0-.81-1.91,6.34,6.34,0,0,0-1.41-1.11,1.13,1.13,0,0,0-1.54.4,1.15,1.15,0,0,0,.4,1.54l.31.2.19.13.06.05.06,0,.13.12a.8.8,0,0,1,.13.13c.08.08.11.2,0,0a1,1,0,0,0,.19.3c-.06,0-.09-.23,0,0s0,.11,0,.16l0,.16c0,.14,0-.27,0-.07s0,.25,0,.37c0,1.12-.15,2.3.76,3.14a1.12,1.12,0,0,0,1.59-1.59Z" transform="translate(-25.3 -25.01)"/><path class="cls-5" d="M99,50.3a2.44,2.44,0,0,0-.29.27,5.12,5.12,0,0,0-.4.52,2.79,2.79,0,0,0-.18.34,4.93,4.93,0,0,0-.24.64.94.94,0,0,0,0,.44.91.91,0,0,0,.14.42.89.89,0,0,0,.29.32.87.87,0,0,0,.38.2l.3,0a1.1,1.1,0,0,0,1.08-.83,2.3,2.3,0,0,1,.12-.34l-.11.27a2.43,2.43,0,0,1,.3-.52l-.17.22a2.11,2.11,0,0,1,.39-.4.88.88,0,0,0,.24-.36.8.8,0,0,0,.09-.43.83.83,0,0,0-.09-.44.88.88,0,0,0-.24-.36,1.11,1.11,0,0,0-.79-.33l-.3,0a1.1,1.1,0,0,0-.5.29Z" transform="translate(-25.3 -25.01)"/><path class="cls-5" d="M91.77,51.58a1.13,1.13,0,0,0,0-2.25,1.13,1.13,0,0,0,0,2.25Z" transform="translate(-25.3 -25.01)"/><path class="cls-5" d="M94.71,58.81c.09-.05.07-.05,0,0h0l-.11,0c.11,0,.09,0,0,0,.18.08-.13-.05-.15-.05s.09,0,0,0c.09.05.08,0,0,0l-.22,1.76a8.55,8.55,0,0,0,1.37-1l-1.36.17a.54.54,0,0,1,.25.3,4.79,4.79,0,0,1,.24.92,8,8,0,0,0,.76,2.22,1.91,1.91,0,0,1-.08,1.85,5.83,5.83,0,0,1-.65,1c-.15.19-.31.38-.47.56a2.13,2.13,0,0,0-.21.22c-.08.17-.31-.05.29,0l.27,2a7.85,7.85,0,0,0,2.69-3.46,1.13,1.13,0,0,0-.78-1.38,1.15,1.15,0,0,0-1.39.78,5.07,5.07,0,0,1-1.66,2.12,1.14,1.14,0,0,0,.27,2.06,2.11,2.11,0,0,0,2-.68,14.35,14.35,0,0,0,1.2-1.48A4.8,4.8,0,0,0,97.69,63,8.81,8.81,0,0,0,97,61.47a7.63,7.63,0,0,1-.3-1.23,3.49,3.49,0,0,0-1.52-2.56,1.16,1.16,0,0,0-1.37.18,5.17,5.17,0,0,1-.92.67,1.14,1.14,0,0,0-.23,1.77,2.58,2.58,0,0,0,3.61.1,1.12,1.12,0,0,0-1.59-1.59Z" transform="translate(-25.3 -25.01)"/><path class="cls-5" d="M104.51,39.44a1.84,1.84,0,0,0,0,1.68c.19.39.56.72.75,1a1.73,1.73,0,0,1,.05,1.06,5.79,5.79,0,0,0,0,1.44,10.69,10.69,0,0,0,.88,2.74,3.91,3.91,0,0,1,.46,2.09,1.16,1.16,0,0,0,.79,1.39,1.14,1.14,0,0,0,1.38-.79,5,5,0,0,0-.25-2.76c-.29-.81-.71-1.58-.94-2.42a11.34,11.34,0,0,1,0-2.47,2.78,2.78,0,0,0-.49-1.53c-.15-.21-.32-.4-.48-.61l-.07-.09c-.17-.18.11-.09-.1.37a1.16,1.16,0,0,0-.4-1.54,1.13,1.13,0,0,0-1.54.4Z" transform="translate(-25.3 -25.01)"/><path class="cls-5" d="M71,114.21c-.7-.58-1.38-1.16-2.08-1.73a2,2,0,0,0-1.81-.56A4.76,4.76,0,0,0,65.39,113c-.65.51-1.29,1.07-2,1.54-1.27.85-2.84-1.31-3.66-2.1a35.51,35.51,0,0,0-3.59-3.35,2.39,2.39,0,0,0-3.5.41,1.83,1.83,0,0,0-.21,1.68,1.89,1.89,0,0,0,.49.69c.21.19.56.29.7.52.24.39.13,1.2.2,1.65A6.69,6.69,0,0,0,54.5,116,6.79,6.79,0,0,0,57,118.69c1.48.92,2.93.8,4.6.82a2.19,2.19,0,0,1,2.27,2.58l2.1-.57a17.56,17.56,0,0,0-4.08-4,1.12,1.12,0,0,0-1.45.29,1.15,1.15,0,0,0,.09,1.48,14.91,14.91,0,0,0,9.67,5.59,1.15,1.15,0,0,0,1.38-.78,1.13,1.13,0,0,0-.78-1.39,13.16,13.16,0,0,1-8.68-5l-1.36,1.77A13.86,13.86,0,0,1,64,122.66a1.14,1.14,0,0,0,2.1-.57,4.39,4.39,0,0,0-3.91-4.8c-1.25-.13-2.5.25-3.68-.32a4.62,4.62,0,0,1-2.11-2.23c-.46-1-.28-2.07-.62-3.08a2.27,2.27,0,0,0-1.07-1.32c-.26-.09-.14-.23-.18.14,0-.44.08.42,0,.27.1.13.54.31.7.45,1.15,1,2.23,2.13,3.34,3.19a9.62,9.62,0,0,0,3.26,2.48c1.66.58,2.85-.43,4.09-1.4l1-.77.37-.29s.48-.42.21-.29l-.12-.05.39.33.52.43,1.17,1c1.1.92,2.7-.67,1.59-1.59Z" transform="translate(-25.3 -25.01)"/><path class="cls-5" d="M47.59,65.18A8.83,8.83,0,0,1,47,66l.18-.23a11.44,11.44,0,0,1-1.51,1.6,1.15,1.15,0,0,0-.33.8,1.13,1.13,0,0,0,1.13,1.12,1.17,1.17,0,0,0,.79-.33,12.53,12.53,0,0,0,2.25-2.62,1.2,1.2,0,0,0,.11-.87,1.12,1.12,0,0,0-.52-.67,1.17,1.17,0,0,0-1.54.4Z" transform="translate(-25.3 -25.01)"/><path class="cls-5" d="M59.46,40.41,64,46.05a1.13,1.13,0,0,0,1.59,0,1.17,1.17,0,0,0,0-1.59l-4.57-5.64a1.12,1.12,0,0,0-1.59,0,1.15,1.15,0,0,0,0,1.59Z" transform="translate(-25.3 -25.01)"/><path class="cls-5" d="M93.67,60.73l-2.44,3.64a1.14,1.14,0,0,0,.41,1.54,1.15,1.15,0,0,0,1.54-.41l2.43-3.64a1.13,1.13,0,0,0-.4-1.54,1.15,1.15,0,0,0-1.54.41Z" transform="translate(-25.3 -25.01)"/><path class="cls-5" d="M90.93,49.38a.91.91,0,0,1-.17-.17l.17.22a1.12,1.12,0,0,1-.16-.28l.11.26a1.68,1.68,0,0,1-.09-.32l0,.3a1.61,1.61,0,0,1,0-.31l0,.3v-.06a.83.83,0,0,0,0-.44.9.9,0,0,0-.13-.42,1,1,0,0,0-.29-.32.81.81,0,0,0-.39-.2l-.3,0a1.09,1.09,0,0,0-.56.15l-.23.18a1.1,1.1,0,0,0-.29.5,2.51,2.51,0,0,0,0,.61,2.25,2.25,0,0,0,.11.62,3.42,3.42,0,0,0,.17.4,1.09,1.09,0,0,0,.08.15,2.88,2.88,0,0,0,.39.46,1,1,0,0,0,.37.24.8.8,0,0,0,.43.09.78.78,0,0,0,.43-.09,1,1,0,0,0,.37-.24,1.16,1.16,0,0,0,.33-.79l0-.3a1.2,1.2,0,0,0-.29-.5Z" transform="translate(-25.3 -25.01)"/><path class="cls-5" d="M103.78,51.19A2.45,2.45,0,0,0,106,50a4.45,4.45,0,0,0,.47-2.59,25.09,25.09,0,0,0-.82-5.24,1.12,1.12,0,1,0-2.17.59,21.55,21.55,0,0,1,.69,3.94q0,.49.06,1c0,.18,0,.35,0,.53s0,0,0,.22a2.25,2.25,0,0,1-.1.33c-.07.18,0,0-.09.12l0,0c-.12.07-.13.08,0,0-.13,0-.13,0,0,0l-.21,0c-.6-.08-1.12.57-1.12,1.13a1.15,1.15,0,0,0,1.12,1.12Z" transform="translate(-25.3 -25.01)"/><path class="cls-5" d="M99.15,42a1.69,1.69,0,0,0,1.9-.81,2.54,2.54,0,0,0,.33-1.62A5.91,5.91,0,0,0,100,36.24a1.12,1.12,0,1,0-1.59,1.59l.1.12c.11.14,0,0,0-.05a1.51,1.51,0,0,1,.18.26,4.4,4.4,0,0,1,.31.56c.06.14,0-.06,0-.09a1,1,0,0,1,.07.18l.09.27a4.67,4.67,0,0,1,.13.65l0-.3a2,2,0,0,1,0,.6l0-.29a2,2,0,0,1-.05.24c0,.12-.11.14,0-.09l-.06.11c0,.09-.12.08.09-.1l-.07.07c-.09.09.25-.16.11-.09,0,0,.3-.1.12-.07l.3,0h-.13l.3,0-.08,0a1.14,1.14,0,0,0-1.39.78A1.16,1.16,0,0,0,99.15,42Z" transform="translate(-25.3 -25.01)"/><path class="cls-5" d="M37.91,45.72l2.91-3.22c1-1.07-.57-2.64-1.59-1.59l-2.93,3A8.07,8.07,0,0,0,34,47.06c-.18.56-.23,1.16-.4,1.74a4.64,4.64,0,0,1-.69,1.3,5.84,5.84,0,0,0-1.31,3.06c-.08,1.45,2.17,1.44,2.25,0,0-.82.76-1.54,1.18-2.2a9.82,9.82,0,0,0,1.09-3.12A6.34,6.34,0,0,1,38,45.36l2.78-2.86-1.59-1.59-2.91,3.22c-1,1.07.62,2.67,1.59,1.59Z" transform="translate(-25.3 -25.01)"/><path class="cls-5" d="M115.23,104.3a7.31,7.31,0,0,0,1.65-2.75,1.22,1.22,0,0,0,0-.6,1.09,1.09,0,0,0-.18-.55,1.08,1.08,0,0,0-.39-.43,1,1,0,0,0-.51-.26,1.49,1.49,0,0,0-1.15.15l-.3.23a1.49,1.49,0,0,0-.39.66l-.15.4.15-.36a5.9,5.9,0,0,1-.72,1.24l.23-.31a4.19,4.19,0,0,1-.39.45,1.59,1.59,0,0,0-.44,1.07,1.14,1.14,0,0,0,.13.57,1.11,1.11,0,0,0,.31.49,1.5,1.5,0,0,0,2.12,0Z" transform="translate(-25.3 -25.01)"/><path class="cls-5" d="M112.12,103.26a62.75,62.75,0,0,1-5.49,5.69,1.5,1.5,0,0,0,2.13,2.12,64,64,0,0,0,5.48-5.69,1.61,1.61,0,0,0,.44-1.06,1.54,1.54,0,0,0-.44-1.06,1.52,1.52,0,0,0-2.12,0Z" transform="translate(-25.3 -25.01)"/><path class="cls-5" d="M108.8,112.54q3.3-3.9,6.29-8c1-1.32,1.9-2.66,2.8-4A12.63,12.63,0,0,0,120,96.11c.41-1.88-2.49-2.69-2.89-.8a10.92,10.92,0,0,1-1.85,3.78q-1.33,2-2.73,3.9c-1.84,2.55-3.79,5-5.82,7.43a1.55,1.55,0,0,0,0,2.12,1.52,1.52,0,0,0,2.12,0Z" transform="translate(-25.3 -25.01)"/></g></g><g id="Layer_7" data-name="Layer 7"><path class="cls-6" d="M111.14,107.79a124.6,124.6,0,0,1-37.88,5.78,124.24,124.24,0,0,1-32.7-4.52A140.63,140.63,0,0,1,35.7,58.37a246.77,246.77,0,0,1,77-2.08A121.62,121.62,0,0,1,114.63,73,122.85,122.85,0,0,1,111.14,107.79Z" transform="translate(-25.3 -25.01)"/></g><g id="Layer_4" data-name="Layer 4"><g class="cls-7"><path d="M50.21,59.51h0l-.59.41-.11-.41.74-.51h.41c.07,1.6.11,2.4.18,4l-.45,0C50.31,61.62,50.28,60.92,50.21,59.51Z" transform="translate(-25.3 -25.01)"/><path d="M70.52,61.09v-.34c.15-.16.22-.25.37-.42.88-1,1.29-1.51,1.28-2.12,0-.4-.18-.78-.71-.77a1.08,1.08,0,0,0-.74.35l-.16-.38a1.39,1.39,0,0,1,1-.42,1.07,1.07,0,0,1,1.1,1.15c0,.74-.46,1.35-1.19,2.17l-.27.3v0l1.57,0v.45Z" transform="translate(-25.3 -25.01)"/><path d="M90.05,60.45a1.31,1.31,0,0,0,.77.27.74.74,0,0,0,.81-.77.81.81,0,0,0-.9-.81h-.26v-.41h.27a.73.73,0,0,0,.8-.67.57.57,0,0,0-.61-.62,1.23,1.23,0,0,0-.71.26l-.12-.4A1.54,1.54,0,0,1,91,57a.92.92,0,0,1,1,1,1,1,0,0,1-.66.94h0a1,1,0,0,1,.76,1,1.18,1.18,0,0,1-1.3,1.19,1.6,1.6,0,0,1-.91-.29Z" transform="translate(-25.3 -25.01)"/><path d="M110.47,62.87l0-1.09-1.63-.07v-.36c.67-1,1-1.5,1.69-2.49l.51,0L111,61.37l.49,0,0,.42-.49,0-.06,1.09Zm.07-1.52L110.6,60c0-.21,0-.42,0-.63h0c-.12.23-.22.4-.32.58l-.92,1.33h0Z" transform="translate(-25.3 -25.01)"/><line class="cls-8" x1="49.79" y1="0.68" x2="49.79" y2="99.54"/><line class="cls-8" y1="50.26" x2="99.09" y2="50.11"/><path class="cls-8" d="M89.82,26.67s13,54.4,0,97" transform="translate(-25.3 -25.01)"/><path class="cls-8" d="M104.27,27.23s23.66,54.4,0,97" transform="translate(-25.3 -25.01)"/><path class="cls-8" d="M59.55,123.32S47,68.81,60.39,26.37" transform="translate(-25.3 -25.01)"/><path class="cls-8" d="M45.11,122.59S21.92,68,46,25.64" transform="translate(-25.3 -25.01)"/><path class="cls-8" d="M27.07,60.21s54.8-12.89,97.67,0" transform="translate(-25.3 -25.01)"/><path class="cls-8" d="M27.63,44.89s54.8-23.49,97.67,0" transform="translate(-25.3 -25.01)"/><path class="cls-8" d="M124.43,89.27s-54.91,12.42-97.67-.83" transform="translate(-25.3 -25.01)"/><path class="cls-8" d="M123.7,103.61s-55,23-97.67-.83" transform="translate(-25.3 -25.01)"/><ellipse class="cls-8" cx="49.79" cy="50.11" rx="49.3" ry="49.43"/><ellipse class="cls-8" cx="49.53" cy="49.55" rx="49.3" ry="49.43"/></g><path d="M37.79,29.47" transform="translate(-25.3 -25.01)"/></g><g id="Layer_5" data-name="Layer 5"><path class="cls-9" d="M39.26,40.61a63.42,63.42,0,0,0-2.06,8.28c-.64,3.35-1.08,6.61-1.48,9.57A237.08,237.08,0,0,1,62.5,55a232.76,232.76,0,0,1,50.1,1.65c-1.12-6.08-2.85-12.82-4.67-19.1-8.58-2.45-17.58-3.71-33-3.2A138.56,138.56,0,0,0,39.26,40.61Z" transform="translate(-25.3 -25.01)"/><path class="cls-9" d="M112.2,15.42" transform="translate(-25.3 -25.01)"/></g><g id="Layer_9" data-name="Layer 9"><path class="cls-10" d="M75.09,55.37s0,17.72,0,57.94" transform="translate(-25.3 -25.01)"/><path class="cls-10" d="M110.91,107.84c7.53-21.35,2-50.56,2-50.56" transform="translate(-25.3 -25.01)"/><path class="cls-10" d="M94.33,55.37S98.05,86,92.65,112" transform="translate(-25.3 -25.01)"/><path class="cls-10" d="M54.74,56.62s-1.93,30.93,2.8,56.21" transform="translate(-25.3 -25.01)"/><path class="cls-10" d="M35.64,59.2s-3.18,22.41,4.73,49.9c0,0,27.06,10.81,70.53-1.21" transform="translate(-25.3 -25.01)"/></g><g id="Layer_8" data-name="Layer 8"><path class="cls-11" d="M44.25,46.34a10,10,0,0,1,1.51-.41,2.74,2.74,0,0,1,1.83.18,1.58,1.58,0,0,1,.76,1.15,1.73,1.73,0,0,1-.25,1.35,2.65,2.65,0,0,1-1.75,1,3,3,0,0,1-.64.07L46.16,52l-.77.15C44.93,49.85,44.7,48.68,44.25,46.34ZM45.59,49a2.89,2.89,0,0,0,.67-.06c1-.18,1.45-.73,1.3-1.55s-.78-1.06-1.67-.89a3.45,3.45,0,0,0-.74.2C45.33,47.66,45.42,48.12,45.59,49Z" transform="translate(-25.3 -25.01)"/><path class="cls-11" d="M49.14,45.38l.8-.13c.35,2.12.52,3.18.87,5.31l2.58-.41.1.65c-1.34.2-2,.3-3.36.53C49.74,49,49.54,47.76,49.14,45.38Z" transform="translate(-25.3 -25.01)"/><path class="cls-11" d="M55.08,48.66c-.15.78-.23,1.18-.37,2l-.81.12c.47-2.51.72-3.76,1.25-6.26l1-.13c1.16,2.28,1.73,3.43,2.83,5.72l-.83.1c-.35-.72-.53-1.08-.89-1.8ZM57,47.79c-.32-.66-.49-1-.82-1.64-.19-.38-.33-.72-.46-1h0c-.05.37-.1.74-.17,1.12-.15.73-.23,1.09-.37,1.81Z" transform="translate(-25.3 -25.01)"/><path class="cls-11" d="M59.85,50c-.27-2.39-.4-3.59-.67-6l.89-.09c.93,1.12,1.39,1.69,2.29,2.83a15.73,15.73,0,0,1,1.29,1.85h0c-.14-.8-.22-1.53-.31-2.46s-.13-1.51-.22-2.52l.76-.06c.21,2.4.31,3.6.52,6l-.8.07c-.88-1.15-1.33-1.72-2.23-2.86A18.61,18.61,0,0,1,60,44.85l0,0c.13.75.23,1.47.33,2.46s.17,1.54.28,2.56Z" transform="translate(-25.3 -25.01)"/><path class="cls-11" d="M68.75,46.37l-2.4.16c.06.87.1,1.3.16,2.17,1.06-.08,1.59-.11,2.64-.17l0,.65c-1.37.08-2,.13-3.42.23-.19-2.4-.28-3.6-.47-6,1.36-.1,2-.15,3.4-.23l0,.65L66.16,44l.14,1.9,2.41-.16Z" transform="translate(-25.3 -25.01)"/><path class="cls-11" d="M71.87,43.08a8.94,8.94,0,0,1,1.55-.18,2.62,2.62,0,0,1,1.78.45,1.59,1.59,0,0,1,.58,1.25,1.79,1.79,0,0,1-.45,1.3,2.63,2.63,0,0,1-1.87.71,2.59,2.59,0,0,1-.64,0c0,1,.05,1.45.09,2.42l-.79,0ZM72.79,46a2.7,2.7,0,0,0,.67,0c1,0,1.54-.5,1.51-1.34s-.61-1.16-1.5-1.13a3.47,3.47,0,0,0-.77.09C72.74,44.54,72.76,45,72.79,46Z" transform="translate(-25.3 -25.01)"/><path class="cls-11" d="M76.83,42.86h.82c0,2.15,0,3.23.06,5.38,1,0,1.56,0,2.61,0v.65c-1.36,0-2,0-3.39,0Z" transform="translate(-25.3 -25.01)"/><path class="cls-11" d="M82.2,47c-.26.75-.4,1.13-.66,1.89h-.81c.84-2.41,1.28-3.61,2.17-6l1,0c.81,2.43,1.2,3.64,2,6.08L85,49c-.24-.77-.36-1.15-.61-1.92Zm2-.57-.57-1.75c-.13-.4-.22-.76-.3-1.11h0c-.1.36-.21.72-.34,1.09-.26.69-.38,1-.63,1.73Z" transform="translate(-25.3 -25.01)"/><path class="cls-11" d="M86.72,49c.1-2.41.14-3.62.24-6l.88,0c.76,1.25,1.13,1.88,1.85,3.14a15.5,15.5,0,0,1,1,2h0c0-.81,0-1.55.06-2.48l.15-2.52.77,0c-.16,2.4-.23,3.61-.39,6l-.79-.05c-.7-1.27-1.06-1.9-1.79-3.16-.39-.69-.78-1.4-1.07-2.06h0c0,.77,0,1.49,0,2.49S87.51,48,87.46,49Z" transform="translate(-25.3 -25.01)"/><path class="cls-11" d="M92.66,49.34c.17-2.41.26-3.61.44-6l.88.07c.71,1.28,1.06,1.92,1.75,3.2a16.09,16.09,0,0,1,.92,2.06h0c0-.81,0-1.54.14-2.48s.14-1.5.24-2.51l.76.08c-.23,2.4-.35,3.6-.59,6l-.79-.08c-.66-1.29-1-1.93-1.68-3.22a22.08,22.08,0,0,1-1-2.1h0c0,.76,0,1.48-.12,2.48l-.2,2.57Z" transform="translate(-25.3 -25.01)"/><path class="cls-11" d="M102.08,47.42l-2.4-.28-.24,2.16,2.64.31-.08.65c-1.36-.17-2-.25-3.41-.39.25-2.4.38-3.6.63-6,1.36.14,2,.22,3.39.39l-.08.65c-1-.13-1.54-.19-2.57-.3-.08.75-.12,1.13-.21,1.89l2.41.28Z" transform="translate(-25.3 -25.01)"/><path class="cls-11" d="M103.79,44.49a8.79,8.79,0,0,1,1.56.09,2.64,2.64,0,0,1,1.74.75,1.47,1.47,0,0,1,.32,1.2A1.6,1.6,0,0,1,106,47.88v0a1.49,1.49,0,0,1,.72,1.33A9.47,9.47,0,0,0,107,51l-.8-.12a7,7,0,0,1-.2-1.49c-.06-.84-.34-1.2-1.06-1.33l-.74-.1-.36,2.58-.78-.1C103.32,48,103.48,46.85,103.79,44.49Zm.44,2.83.81.11c.85.12,1.45-.25,1.55-.93s-.42-1.2-1.26-1.32a3.08,3.08,0,0,0-.81,0C104.4,46,104.34,46.45,104.23,47.32Z" transform="translate(-25.3 -25.01)"/><path class="cls-6" d="M44,46.28a8.94,8.94,0,0,1,1.51-.41,2.62,2.62,0,0,1,1.83.18,1.56,1.56,0,0,1,.76,1.14,1.77,1.77,0,0,1-.25,1.36,2.73,2.73,0,0,1-1.75,1,3,3,0,0,1-.64.06L45.89,52l-.77.15C44.66,49.79,44.43,48.62,44,46.28ZM45.32,49a2.89,2.89,0,0,0,.67-.06c.95-.18,1.45-.73,1.3-1.55s-.78-1.06-1.66-.9a3.45,3.45,0,0,0-.75.21C45.06,47.6,45.15,48.06,45.32,49Z" transform="translate(-25.3 -25.01)"/><path class="cls-6" d="M48.87,45.32l.8-.14c.35,2.13.52,3.19.87,5.31,1-.17,1.55-.25,2.59-.4l.09.64c-1.34.2-2,.31-3.36.53C49.47,48.88,49.27,47.7,48.87,45.32Z" transform="translate(-25.3 -25.01)"/><path class="cls-6" d="M54.81,48.59c-.15.79-.23,1.18-.37,2l-.81.11c.47-2.5.73-3.75,1.25-6.26l1-.13C57,46.57,57.59,47.71,58.69,50l-.83.1c-.35-.72-.53-1.08-.89-1.8Zm1.93-.87-.83-1.64c-.19-.37-.32-.71-.46-1h0c0,.37-.1.75-.17,1.13-.15.72-.23,1.08-.37,1.81Z" transform="translate(-25.3 -25.01)"/><path class="cls-6" d="M59.58,49.91c-.27-2.4-.4-3.6-.67-6l.89-.1c.93,1.13,1.39,1.69,2.3,2.83a16.85,16.85,0,0,1,1.28,1.85h0c-.15-.79-.23-1.52-.32-2.46s-.13-1.51-.22-2.51l.76-.07c.21,2.41.31,3.61.52,6l-.8.07c-.88-1.15-1.32-1.72-2.23-2.86a19.81,19.81,0,0,1-1.37-1.88h0c.13.75.23,1.47.33,2.47s.17,1.53.28,2.56Z" transform="translate(-25.3 -25.01)"/><path class="cls-6" d="M68.48,46.31l-2.4.16.16,2.17c1.06-.08,1.59-.12,2.64-.18l0,.65c-1.37.08-2,.13-3.42.24-.18-2.41-.28-3.61-.47-6,1.36-.11,2-.16,3.4-.24l0,.65-2.58.18.14,1.9,2.41-.17Z" transform="translate(-25.3 -25.01)"/><path class="cls-6" d="M71.6,43a9.11,9.11,0,0,1,1.56-.17,2.61,2.61,0,0,1,1.77.45,1.57,1.57,0,0,1,.58,1.24,1.78,1.78,0,0,1-.45,1.3,2.68,2.68,0,0,1-1.87.72,2.59,2.59,0,0,1-.64,0c0,1,0,1.45.09,2.41l-.79,0Zm.92,2.87a2.7,2.7,0,0,0,.67,0c1,0,1.54-.5,1.52-1.33s-.62-1.17-1.51-1.14a4,4,0,0,0-.76.09C72.47,44.48,72.49,45,72.52,45.88Z" transform="translate(-25.3 -25.01)"/><path class="cls-6" d="M76.56,42.8h.82c0,2.15,0,3.22.06,5.37h2.61v.65c-1.36,0-2,0-3.39,0Z" transform="translate(-25.3 -25.01)"/><path class="cls-6" d="M81.93,46.92c-.26.76-.4,1.14-.66,1.89h-.81c.84-2.41,1.28-3.61,2.17-6l1,0c.8,2.43,1.19,3.65,1.94,6.09l-.84,0L84.12,47Zm2-.57c-.23-.69-.34-1-.57-1.74-.13-.4-.22-.76-.3-1.11h0c-.1.35-.21.72-.34,1.08l-.63,1.74Z" transform="translate(-25.3 -25.01)"/><path class="cls-6" d="M86.45,48.94c.1-2.41.14-3.61.24-6l.88,0c.76,1.26,1.13,1.89,1.85,3.15a16.35,16.35,0,0,1,1,2h0c0-.81,0-1.54.06-2.48s.09-1.51.16-2.52l.76,0c-.16,2.41-.23,3.61-.39,6l-.79,0c-.7-1.27-1.06-1.9-1.79-3.16a22.73,22.73,0,0,1-1.07-2.07h0c0,.76,0,1.49,0,2.49s-.06,1.54-.11,2.57Z" transform="translate(-25.3 -25.01)"/><path class="cls-6" d="M92.39,49.27c.18-2.4.26-3.61.44-6l.88.07c.71,1.27,1.06,1.91,1.75,3.2a16,16,0,0,1,.92,2h0a24.7,24.7,0,0,1,.14-2.47c.1-1,.14-1.51.24-2.51l.76.07c-.23,2.4-.35,3.6-.59,6l-.79-.07c-.66-1.3-1-1.94-1.68-3.22-.37-.71-.73-1.43-1-2.1h0c0,.77,0,1.49-.12,2.49l-.2,2.57Z" transform="translate(-25.3 -25.01)"/><path class="cls-6" d="M101.81,47.36c-1-.12-1.44-.18-2.4-.28-.09.86-.14,1.29-.24,2.16,1.06.11,1.59.18,2.64.31l-.08.65c-1.36-.18-2-.25-3.41-.4.25-2.4.38-3.6.64-6,1.35.14,2,.22,3.38.39l-.08.64-2.57-.3c-.08.76-.12,1.14-.21,1.9,1,.1,1.45.16,2.41.28Z" transform="translate(-25.3 -25.01)"/><path class="cls-6" d="M103.52,44.43a8.71,8.71,0,0,1,1.56.08,2.64,2.64,0,0,1,1.74.75,1.49,1.49,0,0,1,.32,1.21,1.6,1.6,0,0,1-1.39,1.35v0a1.5,1.5,0,0,1,.71,1.34,10.53,10.53,0,0,0,.22,1.71l-.8-.13a7,7,0,0,1-.2-1.48c-.06-.84-.34-1.21-1.06-1.34l-.74-.1-.35,2.59-.79-.1C103.05,48,103.21,46.79,103.52,44.43Zm.44,2.83.81.11c.85.12,1.45-.25,1.56-.93s-.43-1.2-1.27-1.32a3.08,3.08,0,0,0-.81,0C104.13,46,104.07,46.38,104,47.26Z" transform="translate(-25.3 -25.01)"/></g></svg>